<svg xmlns="http://www.w3.org/2000/svg" version="1.1" xmlns:xlink="http://www.w3.org/1999/xlink" xmlns:svgjs="http://svgjs.dev/svgjs" width="1440" height="590" preserveAspectRatio="none" viewBox="0 0 1440 590">
    <g mask="url(&quot;#SvgjsMask1034&quot;)" fill="none">
        <path d="M122.03070308228267 361.88271134037745L184.94204562813132 451.72941979870143 288.25643704269305 312.43905175076645z" fill="rgba(22, 51, 255, 0.55)" class="triangle-float2"></path>
        <path d="M839.3974566595025 440.718799641446L752.0569463620018 425.31831116715114 736.6564578877069 512.6588214646519 823.9969681852076 528.0593099389467z" fill="rgba(22, 51, 255, 0.55)" class="triangle-float3"></path>
        <path d="M517.1651152580212 165.64309540928437L604.4540205886907 97.57939554456959 515.3864693724452 59.77246311181423z" fill="rgba(22, 51, 255, 0.55)" class="triangle-float2"></path>
        <path d="M243.8299389364141 217.20394622871498L286.78159277230367 291.59839294158627 376.89743592366585 189.97368883131628z" fill="rgba(22, 51, 255, 0.55)" class="triangle-float2"></path>
        <path d="M1320.191292001232 639.0035393259827L1428.3104595778186 635.2279347974011 1316.4156874726502 530.884371749396z" fill="rgba(22, 51, 255, 0.55)" class="triangle-float1"></path>
        <path d="M677.4082333024962 123.6484812506443L758.6980379206956 264.4465529867126 818.2063050385646 42.358676632444926z" fill="rgba(22, 51, 255, 0.55)" class="triangle-float3"></path>
        <path d="M1245.1915249160445 381.9965762872716L1224.7811074911951 285.97311192330176 1128.7576431272253 306.38352934815106 1149.1680605520746 402.4069937121209z" fill="rgba(22, 51, 255, 0.55)" class="triangle-float3"></path>
        <path d="M1049.7170187512927 267.98438741343335L1239.2374768070881 217.39606912105342 1120.1235674279035 94.05000516480516z" fill="rgba(22, 51, 255, 0.55)" class="triangle-float2"></path>
        <path d="M1257.928690010732 470.3940364951478L1325.8704890377905 361.66442954697817 1217.140882089621 293.72263051991956 1149.1990830625623 402.45223746808915z" fill="rgba(22, 51, 255, 0.55)" class="triangle-float1"></path>
        <path d="M1009.9344900619346 205.0796437651111L897.3730120450557 204.97237024495072 945.0765720037969 291.03187050697346z" fill="rgba(22, 51, 255, 0.55)" class="triangle-float2"></path>
        <path d="M1133.3178150348322 256.56263259127553L1015.5929368110759 142.8770391750644 901.9073433948647 260.60191739882066 1019.6322216186211 374.28751081503185z" fill="rgba(22, 51, 255, 0.55)" class="triangle-float1"></path>
        <path d="M451.12245188694334 13.544889588314675L321.93867736162395-52.27753119408564 256.1162565792236 76.90624333123378 385.300031104543 142.7286641136341z" fill="rgba(22, 51, 255, 0.55)" class="triangle-float1"></path>
        <path d="M483.9543443884834 437.45990304349334L390.4916308689195 552.8767422108529 599.3711835558429 530.9226165630572z" fill="rgba(22, 51, 255, 0.55)" class="triangle-float2"></path>
        <path d="M1104.924168158717 368.84226061115464L1176.1071052339933 435.2214233094374 1242.486267932276 364.03848623416127 1171.3033308569998 297.6593235358785z" fill="rgba(22, 51, 255, 0.55)" class="triangle-float3"></path>
        <path d="M1404.9081500227385 206.7648553187614L1310.9859013628873 297.29169275833215 1420.0347223279678 330.6312631042497z" fill="rgba(22, 51, 255, 0.55)" class="triangle-float3"></path>
        <path d="M1026.1220300017073 553.5440256315678L1065.2969802038351 456.58262140304294 900.267398759984 446.3008982141135z" fill="rgba(22, 51, 255, 0.55)" class="triangle-float3"></path>
        <path d="M871.7862926148483 549.1903428283923L967.1007883731288 611.2175254792688 974.0352174825474 512.0505691046448z" fill="rgba(22, 51, 255, 0.55)" class="triangle-float3"></path>
        <path d="M345.5643614127997 257.4948093280851L400.09062711897366 135.0268114083459 277.62262919923444 80.50054570217193 223.0963634930605 202.96854362191115z" fill="rgba(22, 51, 255, 0.55)" class="triangle-float3"></path>
        <path d="M843.782003637252-44.27654560384115L713.9186752817116 46.470416670931456 838.3937103784654 107.18094775049767z" fill="rgba(22, 51, 255, 0.55)" class="triangle-float1"></path>
        <path d="M1234.4410505385772 380.89291951263107L1155.4431341463062 451.8867560714669 1243.2299926266637 482.11419553020596z" fill="rgba(22, 51, 255, 0.55)" class="triangle-float2"></path>
    </g>
    <defs>
        <mask id="SvgjsMask1034">
            <rect width="1440" height="590" fill="#ffffff"></rect>
        </mask>
        <style>
            @keyframes float1 {
                    0%{transform: translate(0, 0)}
                    50%{transform: translate(-10px, 0)}
                    100%{transform: translate(0, 0)}
                }

                .triangle-float1 {
                    animation: float1 5s infinite;
                }

                @keyframes float2 {
                    0%{transform: translate(0, 0)}
                    50%{transform: translate(-5px, -5px)}
                    100%{transform: translate(0, 0)}
                }

                .triangle-float2 {
                    animation: float2 4s infinite;
                }

                @keyframes float3 {
                    0%{transform: translate(0, 0)}
                    50%{transform: translate(0, -10px)}
                    100%{transform: translate(0, 0)}
                }

                .triangle-float3 {
                    animation: float3 6s infinite;
                }
        </style>
    </defs>
</svg>