<svg xmlns="http://www.w3.org/2000/svg" version="1.1" xmlns:xlink="http://www.w3.org/1999/xlink" xmlns:svgjs="http://svgjs.dev/svgjs" width="1433" height="568" preserveAspectRatio="none" viewBox="0 0 1433 568"><g mask="url(&quot;#SvgjsMask1617&quot;)" fill="none"><g mask="url(&quot;#SvgjsMask1618&quot;)"><path d="M735 85L725 95M725 225L735 235L735 245M725 55L725 65L715 75L715 85L715 95M735 295L745 305L755 315L755 325L755 335L755 345L755 355L755 365L755 375M725 155L735 165M725 165L725 175L725 185L725 195M735 205L725 215M735 75L725 85M715 -5L715 5L715 15L715 25L725 35L725 45L725 55L735 65L735 75L735 85L735 95L725 105L725 115L725 125L725 135L725 145L725 155L725 165L735 175L735 185L735 195L735 205L735 215L725 225L725 235L725 245L725 255L725 265L725 275L725 285L735 295L735 305L735 315" stroke="#3a7cc3" stroke-width="1.67"></path><path d="M732.5 315 a2.5 2.5 0 1 0 5 0 a2.5 2.5 0 1 0 -5 0zM722.5 95 a2.5 2.5 0 1 0 5 0 a2.5 2.5 0 1 0 -5 0zM732.5 245 a2.5 2.5 0 1 0 5 0 a2.5 2.5 0 1 0 -5 0zM712.5 95 a2.5 2.5 0 1 0 5 0 a2.5 2.5 0 1 0 -5 0zM752.5 375 a2.5 2.5 0 1 0 5 0 a2.5 2.5 0 1 0 -5 0zM732.5 165 a2.5 2.5 0 1 0 5 0 a2.5 2.5 0 1 0 -5 0zM722.5 195 a2.5 2.5 0 1 0 5 0 a2.5 2.5 0 1 0 -5 0zM722.5 215 a2.5 2.5 0 1 0 5 0 a2.5 2.5 0 1 0 -5 0zM722.5 85 a2.5 2.5 0 1 0 5 0 a2.5 2.5 0 1 0 -5 0z" fill="#3a7cc3"></path><path d="M745 145L735 155M745 85L755 95L755 105L755 115L755 125L755 135L755 145L755 155L765 165M745 225L755 235M745 255L745 265L745 275L745 285M745 165L755 175L755 185L755 195L755 205L755 215L755 225M725 15L735 25M745 105L735 115L735 125L735 135M725 -5L725 5L725 15L725 25L735 35L735 45L735 55L745 65L745 75L745 85L745 95L745 105L745 115L745 125L745 135L745 145L745 155L745 165L745 175L745 185L745 195L745 205L745 215L745 225L745 235L745 245L745 255L735 265" stroke="#3a7cc3" stroke-width="1.67"></path><path d="M732.5 265 a2.5 2.5 0 1 0 5 0 a2.5 2.5 0 1 0 -5 0zM732.5 155 a2.5 2.5 0 1 0 5 0 a2.5 2.5 0 1 0 -5 0zM762.5 165 a2.5 2.5 0 1 0 5 0 a2.5 2.5 0 1 0 -5 0zM752.5 235 a2.5 2.5 0 1 0 5 0 a2.5 2.5 0 1 0 -5 0zM742.5 285 a2.5 2.5 0 1 0 5 0 a2.5 2.5 0 1 0 -5 0zM752.5 225 a2.5 2.5 0 1 0 5 0 a2.5 2.5 0 1 0 -5 0zM732.5 25 a2.5 2.5 0 1 0 5 0 a2.5 2.5 0 1 0 -5 0zM732.5 135 a2.5 2.5 0 1 0 5 0 a2.5 2.5 0 1 0 -5 0z" fill="#3a7cc3"></path><path d="M715 215L705 225M715 135L705 145L705 155M715 235L705 245L705 255L705 265L705 275M705 45L715 55L715 65M715 175L705 185M705 315L715 325L715 335L715 345M715 205L705 215L695 225L695 235L685 245L685 255L675 265L675 275L675 285L675 295L685 305L685 315M715 165L705 175M715 105L705 115L705 125M705 -5L705 5L705 15L705 25L705 35L705 45L705 55L705 65L705 75L705 85L705 95L715 105L715 115L715 125L715 135L715 145L715 155L715 165L715 175L715 185L715 195L715 205L715 215L715 225L715 235L715 245L715 255L715 265L715 275L715 285L705 295L705 305L705 315L705 325L695 335L695 345" stroke="#3a7cc3" stroke-width="1.67"></path><path d="M692.5 345 a2.5 2.5 0 1 0 5 0 a2.5 2.5 0 1 0 -5 0zM702.5 225 a2.5 2.5 0 1 0 5 0 a2.5 2.5 0 1 0 -5 0zM702.5 155 a2.5 2.5 0 1 0 5 0 a2.5 2.5 0 1 0 -5 0zM702.5 275 a2.5 2.5 0 1 0 5 0 a2.5 2.5 0 1 0 -5 0zM712.5 65 a2.5 2.5 0 1 0 5 0 a2.5 2.5 0 1 0 -5 0zM702.5 185 a2.5 2.5 0 1 0 5 0 a2.5 2.5 0 1 0 -5 0zM712.5 345 a2.5 2.5 0 1 0 5 0 a2.5 2.5 0 1 0 -5 0zM682.5 315 a2.5 2.5 0 1 0 5 0 a2.5 2.5 0 1 0 -5 0zM702.5 175 a2.5 2.5 0 1 0 5 0 a2.5 2.5 0 1 0 -5 0zM702.5 125 a2.5 2.5 0 1 0 5 0 a2.5 2.5 0 1 0 -5 0z" fill="#3a7cc3"></path><path d="M735 -5L745 5L745 15L745 25L745 35L745 45L745 55L755 65L755 75" stroke="#dd1133" stroke-width="1.67"></path><path d="M752.5 75 a2.5 2.5 0 1 0 5 0 a2.5 2.5 0 1 0 -5 0z" fill="#dd1133"></path><path d="M695 165L685 175L685 185M695 55L685 65M695 135L685 145L685 155L685 165L675 175M695 125L685 135L675 145L665 155L665 165M695 105L685 115L685 125L675 135L665 145M695 -5L695 5L695 15L695 25L695 35L695 45L695 55L695 65L695 75L695 85L695 95L695 105L695 115L695 125L695 135L695 145L695 155L695 165L695 175L695 185L685 195" stroke="#dd1133" stroke-width="1.67"></path><path d="M682.5 195 a2.5 2.5 0 1 0 5 0 a2.5 2.5 0 1 0 -5 0zM682.5 185 a2.5 2.5 0 1 0 5 0 a2.5 2.5 0 1 0 -5 0zM682.5 65 a2.5 2.5 0 1 0 5 0 a2.5 2.5 0 1 0 -5 0zM672.5 175 a2.5 2.5 0 1 0 5 0 a2.5 2.5 0 1 0 -5 0zM662.5 165 a2.5 2.5 0 1 0 5 0 a2.5 2.5 0 1 0 -5 0zM662.5 145 a2.5 2.5 0 1 0 5 0 a2.5 2.5 0 1 0 -5 0z" fill="#dd1133"></path><path d="M785 185L775 195L775 205M785 155L775 165L775 175L775 185M765 95L765 105L765 115L765 125L765 135M785 195L795 205M765 85L775 95M745 -5L755 5L755 15L755 25L755 35L755 45L755 55L765 65L765 75L765 85L765 95L775 105L775 115L775 125L785 135L785 145L785 155L785 165L785 175L785 185L785 195L785 205" stroke="#dd1133" stroke-width="1.67"></path><path d="M782.5 205 a2.5 2.5 0 1 0 5 0 a2.5 2.5 0 1 0 -5 0zM772.5 205 a2.5 2.5 0 1 0 5 0 a2.5 2.5 0 1 0 -5 0zM772.5 185 a2.5 2.5 0 1 0 5 0 a2.5 2.5 0 1 0 -5 0zM762.5 135 a2.5 2.5 0 1 0 5 0 a2.5 2.5 0 1 0 -5 0zM792.5 205 a2.5 2.5 0 1 0 5 0 a2.5 2.5 0 1 0 -5 0zM772.5 95 a2.5 2.5 0 1 0 5 0 a2.5 2.5 0 1 0 -5 0z" fill="#dd1133"></path><path d="M665 95L665 105M655 145L645 155L645 165M675 35L685 45L685 55M655 115L665 125L665 135M685 -5L685 5L685 15L685 25L675 35L675 45L675 55L675 65L675 75L675 85L665 95L655 105L655 115L655 125L655 135L655 145L655 155" stroke="#3a7cc3" stroke-width="1.67"></path><path d="M652.5 155 a2.5 2.5 0 1 0 5 0 a2.5 2.5 0 1 0 -5 0zM662.5 105 a2.5 2.5 0 1 0 5 0 a2.5 2.5 0 1 0 -5 0zM642.5 165 a2.5 2.5 0 1 0 5 0 a2.5 2.5 0 1 0 -5 0zM682.5 55 a2.5 2.5 0 1 0 5 0 a2.5 2.5 0 1 0 -5 0zM662.5 135 a2.5 2.5 0 1 0 5 0 a2.5 2.5 0 1 0 -5 0z" fill="#3a7cc3"></path><path d="M765 45L765 55M775 75L775 85M805 185L795 195M795 175L795 185M805 215L795 225L795 235L795 245M755 -5L765 5L765 15L765 25L765 35L765 45L775 55L775 65L775 75L785 85L785 95L785 105L785 115L785 125L795 135L795 145L795 155L795 165L795 175L805 185L805 195L805 205L805 215L805 225" stroke="#3a7cc3" stroke-width="1.67"></path><path d="M802.5 225 a2.5 2.5 0 1 0 5 0 a2.5 2.5 0 1 0 -5 0zM762.5 55 a2.5 2.5 0 1 0 5 0 a2.5 2.5 0 1 0 -5 0zM772.5 85 a2.5 2.5 0 1 0 5 0 a2.5 2.5 0 1 0 -5 0zM792.5 195 a2.5 2.5 0 1 0 5 0 a2.5 2.5 0 1 0 -5 0zM792.5 185 a2.5 2.5 0 1 0 5 0 a2.5 2.5 0 1 0 -5 0zM792.5 245 a2.5 2.5 0 1 0 5 0 a2.5 2.5 0 1 0 -5 0z" fill="#3a7cc3"></path><path d="M625 235L635 245L645 255L645 265L645 275L655 285L655 295M635 175L645 185L655 195L655 205L655 215L655 225L655 235L655 245L655 255L655 265L655 275L665 285L665 295M645 135L645 145M625 275L635 285L635 295L635 305L635 315L635 325L635 335L635 345L635 355L635 365L635 375M635 185L635 195L645 205L645 215L645 225L645 235L645 245M625 225L635 235M625 265L635 275M625 205L635 215L635 225M675 -5L675 5L675 15L675 25L665 35L665 45L665 55L665 65L665 75L665 85L655 95L645 105L645 115L645 125L645 135L635 145L635 155L635 165L635 175L635 185L625 195L625 205L625 215L625 225L625 235L625 245L625 255L625 265L625 275L625 285L625 295L625 305L625 315" stroke="#3a7cc3" stroke-width="1.67"></path><path d="M622.5 315 a2.5 2.5 0 1 0 5 0 a2.5 2.5 0 1 0 -5 0zM652.5 295 a2.5 2.5 0 1 0 5 0 a2.5 2.5 0 1 0 -5 0zM662.5 295 a2.5 2.5 0 1 0 5 0 a2.5 2.5 0 1 0 -5 0zM642.5 145 a2.5 2.5 0 1 0 5 0 a2.5 2.5 0 1 0 -5 0zM632.5 375 a2.5 2.5 0 1 0 5 0 a2.5 2.5 0 1 0 -5 0zM642.5 245 a2.5 2.5 0 1 0 5 0 a2.5 2.5 0 1 0 -5 0zM632.5 235 a2.5 2.5 0 1 0 5 0 a2.5 2.5 0 1 0 -5 0zM632.5 275 a2.5 2.5 0 1 0 5 0 a2.5 2.5 0 1 0 -5 0zM632.5 225 a2.5 2.5 0 1 0 5 0 a2.5 2.5 0 1 0 -5 0z" fill="#3a7cc3"></path><path d="M765 -5L775 5L775 15L775 25L775 35L775 45L785 55L785 65L785 75L795 85L795 95L795 105L795 115L795 125" stroke="#dd1133" stroke-width="1.67"></path><path d="M792.5 125 a2.5 2.5 0 1 0 5 0 a2.5 2.5 0 1 0 -5 0z" fill="#dd1133"></path><path d="M615 335L605 345L605 355L605 365L605 375M615 295L605 305L605 315L605 325L605 335M615 345L625 355L625 365L625 375M615 325L625 335L625 345M665 -5L665 5L665 15L665 25L655 35L655 45L655 55L655 65L655 75L655 85L645 95L635 105L635 115L635 125L635 135L625 145L625 155L625 165L625 175L625 185L615 195L615 205L615 215L615 225L615 235L615 245L615 255L615 265L615 275L615 285L615 295L615 305L615 315L615 325L615 335L615 345L615 355" stroke="#3a7cc3" stroke-width="1.67"></path><path d="M612.5 355 a2.5 2.5 0 1 0 5 0 a2.5 2.5 0 1 0 -5 0zM602.5 375 a2.5 2.5 0 1 0 5 0 a2.5 2.5 0 1 0 -5 0zM602.5 335 a2.5 2.5 0 1 0 5 0 a2.5 2.5 0 1 0 -5 0zM622.5 375 a2.5 2.5 0 1 0 5 0 a2.5 2.5 0 1 0 -5 0zM622.5 345 a2.5 2.5 0 1 0 5 0 a2.5 2.5 0 1 0 -5 0z" fill="#3a7cc3"></path><path d="M805 135L815 145M805 125L815 135M815 195L815 205L815 215L815 225L815 235L815 245M805 325L815 335L825 345L825 355L815 365L815 375M805 285L815 295L815 305L815 315L815 325L825 335M825 245L825 255L825 265L825 275M805 295L795 305M805 275L795 285L795 295L785 305M805 315L795 325L785 335L785 345M775 -5L785 5L785 15L785 25L785 35L785 45L795 55L795 65L795 75L805 85L805 95L805 105L805 115L805 125L805 135L805 145L805 155L805 165L805 175L815 185L815 195L825 205L825 215L825 225L825 235L825 245L815 255L805 265L805 275L805 285L805 295L805 305L805 315L805 325L805 335L805 345L805 355L805 365" stroke="#dd1133" stroke-width="1.67"></path><path d="M802.5 365 a2.5 2.5 0 1 0 5 0 a2.5 2.5 0 1 0 -5 0zM812.5 145 a2.5 2.5 0 1 0 5 0 a2.5 2.5 0 1 0 -5 0zM812.5 135 a2.5 2.5 0 1 0 5 0 a2.5 2.5 0 1 0 -5 0zM812.5 245 a2.5 2.5 0 1 0 5 0 a2.5 2.5 0 1 0 -5 0zM812.5 375 a2.5 2.5 0 1 0 5 0 a2.5 2.5 0 1 0 -5 0zM822.5 335 a2.5 2.5 0 1 0 5 0 a2.5 2.5 0 1 0 -5 0zM822.5 275 a2.5 2.5 0 1 0 5 0 a2.5 2.5 0 1 0 -5 0zM792.5 305 a2.5 2.5 0 1 0 5 0 a2.5 2.5 0 1 0 -5 0zM782.5 305 a2.5 2.5 0 1 0 5 0 a2.5 2.5 0 1 0 -5 0zM782.5 345 a2.5 2.5 0 1 0 5 0 a2.5 2.5 0 1 0 -5 0z" fill="#dd1133"></path><path d="M645 55L635 65L635 75M605 205L595 215L595 225L595 235M645 35L635 45L635 55M605 275L595 285M615 125L625 135M605 285L605 295M625 115L625 125M655 -5L655 5L655 15L655 25L645 35L645 45L645 55L645 65L645 75L645 85L635 95L625 105L625 115L615 125L615 135L615 145L615 155L615 165L615 175L615 185L605 195L605 205L605 215L605 225L605 235L605 245L605 255L605 265L605 275L605 285L595 295" stroke="#3a7cc3" stroke-width="1.67"></path><path d="M592.5 295 a2.5 2.5 0 1 0 5 0 a2.5 2.5 0 1 0 -5 0zM632.5 75 a2.5 2.5 0 1 0 5 0 a2.5 2.5 0 1 0 -5 0zM592.5 235 a2.5 2.5 0 1 0 5 0 a2.5 2.5 0 1 0 -5 0zM632.5 55 a2.5 2.5 0 1 0 5 0 a2.5 2.5 0 1 0 -5 0zM592.5 285 a2.5 2.5 0 1 0 5 0 a2.5 2.5 0 1 0 -5 0zM622.5 135 a2.5 2.5 0 1 0 5 0 a2.5 2.5 0 1 0 -5 0zM602.5 295 a2.5 2.5 0 1 0 5 0 a2.5 2.5 0 1 0 -5 0zM622.5 125 a2.5 2.5 0 1 0 5 0 a2.5 2.5 0 1 0 -5 0z" fill="#3a7cc3"></path><path d="M785 -5L795 5L795 15L795 25L795 35L795 45L805 55L805 65L805 75L815 85L815 95" stroke="#dd1133" stroke-width="1.67"></path><path d="M812.5 95 a2.5 2.5 0 1 0 5 0 a2.5 2.5 0 1 0 -5 0z" fill="#dd1133"></path><path d="M645 -5L645 5L645 15L635 25L625 35" stroke="#3a7cc3" stroke-width="1.67"></path><path d="M622.5 35 a2.5 2.5 0 1 0 5 0 a2.5 2.5 0 1 0 -5 0z" fill="#3a7cc3"></path><path d="M605 175L595 185L595 195L595 205M625 65L615 75L615 85L615 95M615 45L615 55L615 65M605 165L595 175M635 -5L635 5L635 15L625 25L615 35L615 45L625 55L625 65L625 75L625 85L625 95L615 105L615 115L605 125L605 135L605 145L605 155L605 165L605 175L605 185" stroke="#dd1133" stroke-width="1.67"></path><path d="M602.5 185 a2.5 2.5 0 1 0 5 0 a2.5 2.5 0 1 0 -5 0zM592.5 205 a2.5 2.5 0 1 0 5 0 a2.5 2.5 0 1 0 -5 0zM612.5 95 a2.5 2.5 0 1 0 5 0 a2.5 2.5 0 1 0 -5 0zM612.5 65 a2.5 2.5 0 1 0 5 0 a2.5 2.5 0 1 0 -5 0zM592.5 175 a2.5 2.5 0 1 0 5 0 a2.5 2.5 0 1 0 -5 0z" fill="#dd1133"></path><path d="M835 315L825 325M825 125L835 135L835 145M815 165L825 175L835 185L835 195M845 235L835 245M825 115L835 125L845 135M825 145L825 155L825 165M835 325L845 335L845 345L845 355M845 225L835 235M825 95L835 105L835 115M805 -5L805 5L805 15L805 25L805 35L805 45L815 55L815 65L815 75L825 85L825 95L825 105L825 115L825 125L825 135L825 145L815 155L815 165L815 175L825 185L825 195L835 205L835 215L845 225L845 235L845 245L835 255L835 265L835 275L835 285L835 295L835 305L835 315L835 325L835 335L835 345L835 355L835 365L835 375" stroke="#dd1133" stroke-width="1.67"></path><path d="M832.5 375 a2.5 2.5 0 1 0 5 0 a2.5 2.5 0 1 0 -5 0zM822.5 325 a2.5 2.5 0 1 0 5 0 a2.5 2.5 0 1 0 -5 0zM832.5 145 a2.5 2.5 0 1 0 5 0 a2.5 2.5 0 1 0 -5 0zM832.5 195 a2.5 2.5 0 1 0 5 0 a2.5 2.5 0 1 0 -5 0zM832.5 245 a2.5 2.5 0 1 0 5 0 a2.5 2.5 0 1 0 -5 0zM842.5 135 a2.5 2.5 0 1 0 5 0 a2.5 2.5 0 1 0 -5 0zM822.5 165 a2.5 2.5 0 1 0 5 0 a2.5 2.5 0 1 0 -5 0zM842.5 355 a2.5 2.5 0 1 0 5 0 a2.5 2.5 0 1 0 -5 0zM832.5 235 a2.5 2.5 0 1 0 5 0 a2.5 2.5 0 1 0 -5 0zM832.5 115 a2.5 2.5 0 1 0 5 0 a2.5 2.5 0 1 0 -5 0z" fill="#dd1133"></path><path d="M585 275L575 285L575 295L565 305L555 315L555 325M585 255L575 265L575 275L565 285L565 295L555 305L545 315L545 325L545 335M585 315L575 325L575 335L575 345M585 245L595 255M585 305L575 315L565 325L565 335L565 345M585 265L595 275M585 235L575 245L575 255L565 265L565 275L555 285L555 295L545 305M625 -5L625 5L625 15L615 25L605 35L605 45L605 55L605 65L605 75L605 85L605 95L605 105L605 115L595 125L595 135L595 145L595 155L585 165L585 175L585 185L585 195L585 205L585 215L585 225L585 235L585 245L585 255L585 265L585 275L585 285L585 295L585 305L585 315L585 325L585 335" stroke="#dd1133" stroke-width="1.67"></path><path d="M582.5 335 a2.5 2.5 0 1 0 5 0 a2.5 2.5 0 1 0 -5 0zM552.5 325 a2.5 2.5 0 1 0 5 0 a2.5 2.5 0 1 0 -5 0zM542.5 335 a2.5 2.5 0 1 0 5 0 a2.5 2.5 0 1 0 -5 0zM572.5 345 a2.5 2.5 0 1 0 5 0 a2.5 2.5 0 1 0 -5 0zM592.5 255 a2.5 2.5 0 1 0 5 0 a2.5 2.5 0 1 0 -5 0zM562.5 345 a2.5 2.5 0 1 0 5 0 a2.5 2.5 0 1 0 -5 0zM592.5 275 a2.5 2.5 0 1 0 5 0 a2.5 2.5 0 1 0 -5 0zM542.5 305 a2.5 2.5 0 1 0 5 0 a2.5 2.5 0 1 0 -5 0z" fill="#dd1133"></path><path d="M855 185L845 195M855 295L845 305L845 315L845 325M855 255L865 265L865 275L865 285L865 295L865 305L865 315L865 325L865 335L865 345L865 355M855 245L865 255M855 145L845 155L845 165M855 285L845 295M855 275L845 285M855 175L845 185M845 205L855 215L865 225L865 235L865 245L875 255L875 265M815 -5L815 5L815 15L815 25L815 35L815 45L825 55L825 65L825 75L835 85L845 95L845 105L845 115L855 125L855 135L855 145L855 155L855 165L855 175L855 185L855 195L845 205L845 215L855 225L855 235L855 245L855 255L855 265L855 275L855 285L855 295L855 305L855 315L855 325L855 335L855 345" stroke="#3a7cc3" stroke-width="1.67"></path><path d="M852.5 345 a2.5 2.5 0 1 0 5 0 a2.5 2.5 0 1 0 -5 0zM842.5 195 a2.5 2.5 0 1 0 5 0 a2.5 2.5 0 1 0 -5 0zM842.5 325 a2.5 2.5 0 1 0 5 0 a2.5 2.5 0 1 0 -5 0zM862.5 355 a2.5 2.5 0 1 0 5 0 a2.5 2.5 0 1 0 -5 0zM862.5 255 a2.5 2.5 0 1 0 5 0 a2.5 2.5 0 1 0 -5 0zM842.5 165 a2.5 2.5 0 1 0 5 0 a2.5 2.5 0 1 0 -5 0zM842.5 295 a2.5 2.5 0 1 0 5 0 a2.5 2.5 0 1 0 -5 0zM842.5 285 a2.5 2.5 0 1 0 5 0 a2.5 2.5 0 1 0 -5 0zM842.5 185 a2.5 2.5 0 1 0 5 0 a2.5 2.5 0 1 0 -5 0zM872.5 265 a2.5 2.5 0 1 0 5 0 a2.5 2.5 0 1 0 -5 0z" fill="#3a7cc3"></path><path d="M615 -5L615 5L615 15L605 25L595 35L595 45L595 55L595 65L595 75L595 85L595 95L595 105L595 115L585 125L585 135L585 145L585 155L575 165L575 175L575 185L575 195L575 205L575 215L575 225" stroke="#3a7cc3" stroke-width="1.67"></path><path d="M572.5 225 a2.5 2.5 0 1 0 5 0 a2.5 2.5 0 1 0 -5 0z" fill="#3a7cc3"></path><path d="M865 185L875 195L875 205M825 -5L825 5L825 15L825 25L825 35L825 45L835 55L835 65L835 75L845 85L855 95L855 105L855 115L865 125L865 135L865 145L865 155L865 165L865 175L865 185L865 195" stroke="#3a7cc3" stroke-width="1.67"></path><path d="M862.5 195 a2.5 2.5 0 1 0 5 0 a2.5 2.5 0 1 0 -5 0zM872.5 205 a2.5 2.5 0 1 0 5 0 a2.5 2.5 0 1 0 -5 0z" fill="#3a7cc3"></path><path d="M565 225L565 235L565 245L565 255L555 265L555 275M585 55L575 65L575 75L575 85M575 125L565 135M585 45L575 55M585 95L575 105L575 115M605 -5L605 5L605 15L595 25L585 35L585 45L585 55L585 65L585 75L585 85L585 95L585 105L585 115L575 125L575 135L575 145L575 155L565 165L565 175L565 185L565 195L565 205L565 215L565 225L555 235" stroke="#dd1133" stroke-width="1.67"></path><path d="M552.5 235 a2.5 2.5 0 1 0 5 0 a2.5 2.5 0 1 0 -5 0zM552.5 275 a2.5 2.5 0 1 0 5 0 a2.5 2.5 0 1 0 -5 0zM572.5 85 a2.5 2.5 0 1 0 5 0 a2.5 2.5 0 1 0 -5 0zM562.5 135 a2.5 2.5 0 1 0 5 0 a2.5 2.5 0 1 0 -5 0zM572.5 55 a2.5 2.5 0 1 0 5 0 a2.5 2.5 0 1 0 -5 0zM572.5 115 a2.5 2.5 0 1 0 5 0 a2.5 2.5 0 1 0 -5 0z" fill="#dd1133"></path><path d="M845 55L845 65L845 75M835 -5L835 5L835 15L835 25L835 35L835 45L845 55L855 65L855 75L855 85L865 95L865 105L865 115L875 125L875 135L875 145L875 155L875 165L875 175" stroke="#dd1133" stroke-width="1.67"></path><path d="M872.5 175 a2.5 2.5 0 1 0 5 0 a2.5 2.5 0 1 0 -5 0zM842.5 75 a2.5 2.5 0 1 0 5 0 a2.5 2.5 0 1 0 -5 0z" fill="#dd1133"></path><path d="M555 165L545 175L545 185L545 195L545 205L545 215L545 225M565 145L555 155L545 165M555 135L555 145M575 35L575 45M565 105L555 115M565 95L555 105M595 -5L595 5L595 15L585 25L575 35L565 45L565 55L565 65L565 75L565 85L565 95L565 105L565 115L555 125L555 135L565 145L565 155L555 165L555 175L555 185L555 195L555 205L555 215L555 225L545 235L545 245" stroke="#3a7cc3" stroke-width="1.67"></path><path d="M542.5 245 a2.5 2.5 0 1 0 5 0 a2.5 2.5 0 1 0 -5 0zM542.5 225 a2.5 2.5 0 1 0 5 0 a2.5 2.5 0 1 0 -5 0zM542.5 165 a2.5 2.5 0 1 0 5 0 a2.5 2.5 0 1 0 -5 0zM552.5 145 a2.5 2.5 0 1 0 5 0 a2.5 2.5 0 1 0 -5 0zM572.5 45 a2.5 2.5 0 1 0 5 0 a2.5 2.5 0 1 0 -5 0zM552.5 115 a2.5 2.5 0 1 0 5 0 a2.5 2.5 0 1 0 -5 0zM552.5 105 a2.5 2.5 0 1 0 5 0 a2.5 2.5 0 1 0 -5 0z" fill="#3a7cc3"></path><path d="M845 -5L845 5L845 15L845 25L845 35L845 45L855 55L865 65L865 75L865 85L875 95L875 105L875 115" stroke="#dd1133" stroke-width="1.67"></path><path d="M872.5 115 a2.5 2.5 0 1 0 5 0 a2.5 2.5 0 1 0 -5 0z" fill="#dd1133"></path><path d="M555 65L545 75L545 85M555 55L545 65M585 -5L585 5L585 15L575 25L565 35L555 45L555 55L555 65L555 75" stroke="#3a7cc3" stroke-width="1.67"></path><path d="M552.5 75 a2.5 2.5 0 1 0 5 0 a2.5 2.5 0 1 0 -5 0zM542.5 85 a2.5 2.5 0 1 0 5 0 a2.5 2.5 0 1 0 -5 0zM542.5 65 a2.5 2.5 0 1 0 5 0 a2.5 2.5 0 1 0 -5 0z" fill="#3a7cc3"></path><path d="M875 75L875 85M885 195L895 205M885 215L895 225L895 235L895 245M855 -5L855 5L855 15L855 25L855 35L855 45L865 55L875 65L875 75L885 85L885 95L885 105L885 115L885 125L885 135L885 145L885 155L885 165L885 175L885 185L885 195L885 205L885 215L885 225" stroke="#3a7cc3" stroke-width="1.67"></path><path d="M882.5 225 a2.5 2.5 0 1 0 5 0 a2.5 2.5 0 1 0 -5 0zM872.5 85 a2.5 2.5 0 1 0 5 0 a2.5 2.5 0 1 0 -5 0zM892.5 205 a2.5 2.5 0 1 0 5 0 a2.5 2.5 0 1 0 -5 0zM892.5 245 a2.5 2.5 0 1 0 5 0 a2.5 2.5 0 1 0 -5 0z" fill="#3a7cc3"></path><path d="M545 125L535 135L535 145L525 155L525 165M535 95L545 105L545 115M535 205L525 215L525 225L525 235L525 245L525 255L525 265L525 275M535 85L525 95L525 105L525 115M545 45L545 55M535 195L525 205M535 175L525 185L525 195M575 -5L575 5L575 15L565 25L555 35L545 45L535 55L535 65L535 75L535 85L535 95L535 105L535 115L545 125L545 135L545 145L535 155L535 165L535 175L535 185L535 195L535 205L535 215L535 225L535 235L535 245L535 255L535 265L545 275L545 285" stroke="#3a7cc3" stroke-width="1.67"></path><path d="M542.5 285 a2.5 2.5 0 1 0 5 0 a2.5 2.5 0 1 0 -5 0zM522.5 165 a2.5 2.5 0 1 0 5 0 a2.5 2.5 0 1 0 -5 0zM542.5 115 a2.5 2.5 0 1 0 5 0 a2.5 2.5 0 1 0 -5 0zM522.5 275 a2.5 2.5 0 1 0 5 0 a2.5 2.5 0 1 0 -5 0zM522.5 115 a2.5 2.5 0 1 0 5 0 a2.5 2.5 0 1 0 -5 0zM542.5 55 a2.5 2.5 0 1 0 5 0 a2.5 2.5 0 1 0 -5 0zM522.5 205 a2.5 2.5 0 1 0 5 0 a2.5 2.5 0 1 0 -5 0zM522.5 195 a2.5 2.5 0 1 0 5 0 a2.5 2.5 0 1 0 -5 0z" fill="#3a7cc3"></path><path d="M915 255L905 265L905 275M915 265L925 275L925 285M915 315L925 325M865 35L875 45L885 55M895 185L895 195M915 325L915 335L915 345L915 355L915 365L915 375M915 235L905 245L905 255L895 265M915 245L925 255L925 265M865 -5L865 5L865 15L865 25L865 35L865 45L875 55L885 65L885 75L895 85L895 95L895 105L895 115L895 125L895 135L895 145L895 155L895 165L895 175L895 185L905 195L905 205L905 215L915 225L915 235L915 245L915 255L915 265L915 275L915 285L915 295L915 305L915 315L915 325L925 335" stroke="#dd1133" stroke-width="1.67"></path><path d="M922.5 335 a2.5 2.5 0 1 0 5 0 a2.5 2.5 0 1 0 -5 0zM902.5 275 a2.5 2.5 0 1 0 5 0 a2.5 2.5 0 1 0 -5 0zM922.5 285 a2.5 2.5 0 1 0 5 0 a2.5 2.5 0 1 0 -5 0zM922.5 325 a2.5 2.5 0 1 0 5 0 a2.5 2.5 0 1 0 -5 0zM882.5 55 a2.5 2.5 0 1 0 5 0 a2.5 2.5 0 1 0 -5 0zM892.5 195 a2.5 2.5 0 1 0 5 0 a2.5 2.5 0 1 0 -5 0zM912.5 375 a2.5 2.5 0 1 0 5 0 a2.5 2.5 0 1 0 -5 0zM892.5 265 a2.5 2.5 0 1 0 5 0 a2.5 2.5 0 1 0 -5 0zM922.5 265 a2.5 2.5 0 1 0 5 0 a2.5 2.5 0 1 0 -5 0z" fill="#dd1133"></path><path d="M515 165L505 175L505 185L505 195M515 115L505 125L505 135L505 145L505 155M515 75L515 85L515 95M525 55L525 65L525 75L525 85M515 105L505 115M565 -5L565 5L565 15L555 25L545 35L535 45L525 55L515 65L515 75L505 85L505 95L515 105L515 115L515 125L515 135L515 145L515 155L515 165L515 175L515 185L515 195L515 205L515 215" stroke="#3a7cc3" stroke-width="1.67"></path><path d="M512.5 215 a2.5 2.5 0 1 0 5 0 a2.5 2.5 0 1 0 -5 0zM502.5 195 a2.5 2.5 0 1 0 5 0 a2.5 2.5 0 1 0 -5 0zM502.5 155 a2.5 2.5 0 1 0 5 0 a2.5 2.5 0 1 0 -5 0zM512.5 95 a2.5 2.5 0 1 0 5 0 a2.5 2.5 0 1 0 -5 0zM522.5 85 a2.5 2.5 0 1 0 5 0 a2.5 2.5 0 1 0 -5 0zM502.5 115 a2.5 2.5 0 1 0 5 0 a2.5 2.5 0 1 0 -5 0z" fill="#3a7cc3"></path><path d="M875 -5L875 5L875 15L875 25" stroke="#3a7cc3" stroke-width="1.67"></path><path d="M872.5 25 a2.5 2.5 0 1 0 5 0 a2.5 2.5 0 1 0 -5 0z" fill="#3a7cc3"></path><path d="M485 195L495 205L495 215L495 225M485 175L495 185L495 195M495 125L495 135L495 145L495 155M485 165L495 175M475 245L465 255M475 255L475 265L475 275M545 5L555 15M555 -5L545 5L545 15L545 25L535 35L525 45L515 55L505 65L505 75L495 85L495 95L495 105L495 115L495 125L485 135L485 145L485 155L485 165L485 175L485 185L485 195L485 205L485 215L475 225L475 235L475 245L475 255L485 265" stroke="#3a7cc3" stroke-width="1.67"></path><path d="M482.5 265 a2.5 2.5 0 1 0 5 0 a2.5 2.5 0 1 0 -5 0zM492.5 225 a2.5 2.5 0 1 0 5 0 a2.5 2.5 0 1 0 -5 0zM492.5 195 a2.5 2.5 0 1 0 5 0 a2.5 2.5 0 1 0 -5 0zM492.5 155 a2.5 2.5 0 1 0 5 0 a2.5 2.5 0 1 0 -5 0zM492.5 175 a2.5 2.5 0 1 0 5 0 a2.5 2.5 0 1 0 -5 0zM462.5 255 a2.5 2.5 0 1 0 5 0 a2.5 2.5 0 1 0 -5 0zM472.5 275 a2.5 2.5 0 1 0 5 0 a2.5 2.5 0 1 0 -5 0zM552.5 15 a2.5 2.5 0 1 0 5 0 a2.5 2.5 0 1 0 -5 0z" fill="#3a7cc3"></path><path d="M915 205L925 215M905 165L915 175L915 185M895 45L905 55L905 65M905 115L915 125M905 135L915 145L915 155L915 165M905 95L915 105M885 -5L885 5L885 15L885 25L895 35L895 45L895 55L895 65L895 75L905 85L905 95L905 105L905 115L905 125L905 135L905 145L905 155L905 165L905 175L905 185L915 195L915 205L915 215L925 225" stroke="#dd1133" stroke-width="1.67"></path><path d="M922.5 225 a2.5 2.5 0 1 0 5 0 a2.5 2.5 0 1 0 -5 0zM922.5 215 a2.5 2.5 0 1 0 5 0 a2.5 2.5 0 1 0 -5 0zM912.5 185 a2.5 2.5 0 1 0 5 0 a2.5 2.5 0 1 0 -5 0zM902.5 65 a2.5 2.5 0 1 0 5 0 a2.5 2.5 0 1 0 -5 0zM912.5 125 a2.5 2.5 0 1 0 5 0 a2.5 2.5 0 1 0 -5 0zM912.5 165 a2.5 2.5 0 1 0 5 0 a2.5 2.5 0 1 0 -5 0zM912.5 105 a2.5 2.5 0 1 0 5 0 a2.5 2.5 0 1 0 -5 0z" fill="#dd1133"></path><path d="M445 305L455 315M455 235L465 245M455 245L445 255L445 265M455 285L465 295L465 305L465 315L465 325L465 335L475 345L475 355L475 365L465 375M465 355L455 365L455 375M455 295L455 305M455 335L455 345L455 355L445 365L445 375M485 115L475 125M485 105L475 115M545 -5L535 5L535 15L535 25L525 35L515 45L505 55L495 65L495 75L485 85L485 95L485 105L485 115L485 125L475 135L475 145L475 155L475 165L475 175L475 185L475 195L475 205L475 215L465 225L455 235L455 245L455 255L455 265L455 275L455 285L455 295L445 305L445 315L455 325L455 335L465 345L465 355L465 365" stroke="#dd1133" stroke-width="1.67"></path><path d="M462.5 365 a2.5 2.5 0 1 0 5 0 a2.5 2.5 0 1 0 -5 0zM452.5 315 a2.5 2.5 0 1 0 5 0 a2.5 2.5 0 1 0 -5 0zM462.5 245 a2.5 2.5 0 1 0 5 0 a2.5 2.5 0 1 0 -5 0zM442.5 265 a2.5 2.5 0 1 0 5 0 a2.5 2.5 0 1 0 -5 0zM462.5 375 a2.5 2.5 0 1 0 5 0 a2.5 2.5 0 1 0 -5 0zM452.5 375 a2.5 2.5 0 1 0 5 0 a2.5 2.5 0 1 0 -5 0zM452.5 305 a2.5 2.5 0 1 0 5 0 a2.5 2.5 0 1 0 -5 0zM442.5 375 a2.5 2.5 0 1 0 5 0 a2.5 2.5 0 1 0 -5 0zM472.5 125 a2.5 2.5 0 1 0 5 0 a2.5 2.5 0 1 0 -5 0zM472.5 115 a2.5 2.5 0 1 0 5 0 a2.5 2.5 0 1 0 -5 0z" fill="#dd1133"></path><path d="M925 155L935 165L935 175L935 185L935 195L945 205M935 225L945 235M915 75L915 85L915 95M935 245L945 255L945 265L945 275M935 235L925 245M925 135L935 145L935 155L945 165L945 175M925 195L925 205M895 -5L895 5L895 15L895 25L905 35L915 45L915 55L915 65L915 75L925 85L925 95L925 105L925 115L925 125L925 135L925 145L925 155L925 165L925 175L925 185L925 195L935 205L935 215L935 225L935 235L935 245L935 255L935 265L935 275" stroke="#dd1133" stroke-width="1.67"></path><path d="M932.5 275 a2.5 2.5 0 1 0 5 0 a2.5 2.5 0 1 0 -5 0zM942.5 205 a2.5 2.5 0 1 0 5 0 a2.5 2.5 0 1 0 -5 0zM942.5 235 a2.5 2.5 0 1 0 5 0 a2.5 2.5 0 1 0 -5 0zM912.5 95 a2.5 2.5 0 1 0 5 0 a2.5 2.5 0 1 0 -5 0zM942.5 275 a2.5 2.5 0 1 0 5 0 a2.5 2.5 0 1 0 -5 0zM922.5 245 a2.5 2.5 0 1 0 5 0 a2.5 2.5 0 1 0 -5 0zM942.5 175 a2.5 2.5 0 1 0 5 0 a2.5 2.5 0 1 0 -5 0zM922.5 205 a2.5 2.5 0 1 0 5 0 a2.5 2.5 0 1 0 -5 0z" fill="#dd1133"></path><path d="M475 95L475 105M535 -5L525 5L525 15L525 25L515 35L505 45L495 55L485 65L485 75L475 85L475 95L465 105L465 115L465 125L465 135L465 145L465 155L465 165L465 175L465 185L465 195" stroke="#3a7cc3" stroke-width="1.67"></path><path d="M462.5 195 a2.5 2.5 0 1 0 5 0 a2.5 2.5 0 1 0 -5 0zM472.5 105 a2.5 2.5 0 1 0 5 0 a2.5 2.5 0 1 0 -5 0z" fill="#3a7cc3"></path><path d="M905 15L915 25M905 5L915 15M935 105L935 115M905 -5L905 5L905 15L905 25L915 35L925 45L925 55L925 65L925 75L935 85L935 95L935 105L945 115" stroke="#dd1133" stroke-width="1.67"></path><path d="M942.5 115 a2.5 2.5 0 1 0 5 0 a2.5 2.5 0 1 0 -5 0zM912.5 25 a2.5 2.5 0 1 0 5 0 a2.5 2.5 0 1 0 -5 0zM912.5 15 a2.5 2.5 0 1 0 5 0 a2.5 2.5 0 1 0 -5 0zM932.5 115 a2.5 2.5 0 1 0 5 0 a2.5 2.5 0 1 0 -5 0z" fill="#dd1133"></path><path d="M525 -5L515 5L515 15L515 25L505 35L495 45L485 55L475 65L475 75L465 85L465 95" stroke="#dd1133" stroke-width="1.67"></path><path d="M462.5 95 a2.5 2.5 0 1 0 5 0 a2.5 2.5 0 1 0 -5 0z" fill="#dd1133"></path><path d="M955 145L945 155M935 45L945 55L945 65L945 75M925 25L935 35M955 135L945 145M915 -5L925 5L925 15L925 25L925 35L935 45L935 55L935 65L935 75L945 85L945 95L945 105L955 115L955 125L955 135L955 145L955 155L955 165" stroke="#3a7cc3" stroke-width="1.67"></path><path d="M952.5 165 a2.5 2.5 0 1 0 5 0 a2.5 2.5 0 1 0 -5 0zM942.5 155 a2.5 2.5 0 1 0 5 0 a2.5 2.5 0 1 0 -5 0zM942.5 75 a2.5 2.5 0 1 0 5 0 a2.5 2.5 0 1 0 -5 0zM932.5 35 a2.5 2.5 0 1 0 5 0 a2.5 2.5 0 1 0 -5 0zM942.5 145 a2.5 2.5 0 1 0 5 0 a2.5 2.5 0 1 0 -5 0z" fill="#3a7cc3"></path><path d="M435 315L425 325L425 335L425 345L425 355L425 365L425 375M435 335L445 345L445 355M435 305L425 315M455 195L455 205L455 215L455 225M435 285L445 295M445 235L445 245M435 275L445 285M435 325L445 335M515 -5L505 5L505 15L505 25L495 35L485 45L475 55L465 65L465 75L455 85L455 95L455 105L455 115L455 125L455 135L455 145L455 155L455 165L455 175L455 185L455 195L445 205L445 215L445 225L445 235L435 245L435 255L435 265L435 275L435 285L435 295L435 305L435 315L435 325L435 335L435 345L435 355L435 365" stroke="#3a7cc3" stroke-width="1.67"></path><path d="M432.5 365 a2.5 2.5 0 1 0 5 0 a2.5 2.5 0 1 0 -5 0zM422.5 375 a2.5 2.5 0 1 0 5 0 a2.5 2.5 0 1 0 -5 0zM442.5 355 a2.5 2.5 0 1 0 5 0 a2.5 2.5 0 1 0 -5 0zM422.5 315 a2.5 2.5 0 1 0 5 0 a2.5 2.5 0 1 0 -5 0zM452.5 225 a2.5 2.5 0 1 0 5 0 a2.5 2.5 0 1 0 -5 0zM442.5 295 a2.5 2.5 0 1 0 5 0 a2.5 2.5 0 1 0 -5 0zM442.5 245 a2.5 2.5 0 1 0 5 0 a2.5 2.5 0 1 0 -5 0zM442.5 285 a2.5 2.5 0 1 0 5 0 a2.5 2.5 0 1 0 -5 0zM442.5 335 a2.5 2.5 0 1 0 5 0 a2.5 2.5 0 1 0 -5 0z" fill="#3a7cc3"></path><path d="M945 35L945 45M935 15L935 25M925 -5L935 5L935 15L945 25L945 35L955 45L955 55L955 65L955 75L955 85L955 95L955 105L965 115L965 125" stroke="#dd1133" stroke-width="1.67"></path><path d="M962.5 125 a2.5 2.5 0 1 0 5 0 a2.5 2.5 0 1 0 -5 0zM942.5 45 a2.5 2.5 0 1 0 5 0 a2.5 2.5 0 1 0 -5 0zM932.5 25 a2.5 2.5 0 1 0 5 0 a2.5 2.5 0 1 0 -5 0z" fill="#dd1133"></path><path d="M435 225L425 235M425 295L425 305M435 215L425 225M445 105L435 115M415 305L405 315L405 325L405 335L415 345L415 355L415 365L415 375M505 -5L495 5L495 15L495 25L485 35L475 45L465 55L455 65L455 75L445 85L445 95L445 105L445 115L445 125L445 135L445 145L445 155L445 165L445 175L445 185L445 195L435 205L435 215L435 225L435 235L425 245L425 255L425 265L425 275L425 285L425 295L415 305L415 315" stroke="#dd1133" stroke-width="1.67"></path><path d="M412.5 315 a2.5 2.5 0 1 0 5 0 a2.5 2.5 0 1 0 -5 0zM422.5 235 a2.5 2.5 0 1 0 5 0 a2.5 2.5 0 1 0 -5 0zM422.5 305 a2.5 2.5 0 1 0 5 0 a2.5 2.5 0 1 0 -5 0zM422.5 225 a2.5 2.5 0 1 0 5 0 a2.5 2.5 0 1 0 -5 0zM432.5 115 a2.5 2.5 0 1 0 5 0 a2.5 2.5 0 1 0 -5 0zM412.5 375 a2.5 2.5 0 1 0 5 0 a2.5 2.5 0 1 0 -5 0z" fill="#dd1133"></path><path d="M975 115L985 125L985 135L985 145L985 155L985 165L985 175M955 305L945 315L935 325L935 335L935 345M965 155L975 165L975 175L975 185M955 235L965 245L965 255M965 145L975 155M965 55L975 65L975 75L975 85L975 95L975 105L985 115L995 125L995 135L995 145M955 195L965 205L965 215L965 225L975 235M945 325L955 335L965 345L965 355L975 365M935 -5L945 5L945 15L955 25L965 35L965 45L965 55L965 65L965 75L965 85L965 95L965 105L975 115L975 125L975 135L965 145L965 155L965 165L965 175L955 185L955 195L955 205L955 215L955 225L955 235L955 245L955 255L955 265L955 275L955 285L955 295L955 305L955 315L945 325L945 335" stroke="#dd1133" stroke-width="1.67"></path><path d="M942.5 335 a2.5 2.5 0 1 0 5 0 a2.5 2.5 0 1 0 -5 0zM982.5 175 a2.5 2.5 0 1 0 5 0 a2.5 2.5 0 1 0 -5 0zM932.5 345 a2.5 2.5 0 1 0 5 0 a2.5 2.5 0 1 0 -5 0zM972.5 185 a2.5 2.5 0 1 0 5 0 a2.5 2.5 0 1 0 -5 0zM962.5 255 a2.5 2.5 0 1 0 5 0 a2.5 2.5 0 1 0 -5 0zM972.5 155 a2.5 2.5 0 1 0 5 0 a2.5 2.5 0 1 0 -5 0zM992.5 145 a2.5 2.5 0 1 0 5 0 a2.5 2.5 0 1 0 -5 0zM972.5 235 a2.5 2.5 0 1 0 5 0 a2.5 2.5 0 1 0 -5 0zM972.5 365 a2.5 2.5 0 1 0 5 0 a2.5 2.5 0 1 0 -5 0z" fill="#dd1133"></path><path d="M495 -5L485 5L485 15L485 25L475 35L465 45L455 55" stroke="#3a7cc3" stroke-width="1.67"></path><path d="M452.5 55 a2.5 2.5 0 1 0 5 0 a2.5 2.5 0 1 0 -5 0z" fill="#3a7cc3"></path><path d="M995 65L985 75L985 85L985 95M975 45L975 55M945 -5L955 5L955 15L965 25L975 35L975 45L985 55L995 65L995 75L995 85" stroke="#3a7cc3" stroke-width="1.67"></path><path d="M992.5 85 a2.5 2.5 0 1 0 5 0 a2.5 2.5 0 1 0 -5 0zM982.5 95 a2.5 2.5 0 1 0 5 0 a2.5 2.5 0 1 0 -5 0zM972.5 55 a2.5 2.5 0 1 0 5 0 a2.5 2.5 0 1 0 -5 0z" fill="#3a7cc3"></path><path d="M485 -5L475 5L475 15L475 25L465 35L455 45L445 55L445 65L445 75" stroke="#3a7cc3" stroke-width="1.67"></path><path d="M442.5 75 a2.5 2.5 0 1 0 5 0 a2.5 2.5 0 1 0 -5 0z" fill="#3a7cc3"></path><path d="M985 35L985 45M955 -5L965 5L965 15L975 25L985 35L995 45L995 55L1005 65L1005 75" stroke="#3a7cc3" stroke-width="1.67"></path><path d="M1002.5 75 a2.5 2.5 0 1 0 5 0 a2.5 2.5 0 1 0 -5 0zM982.5 45 a2.5 2.5 0 1 0 5 0 a2.5 2.5 0 1 0 -5 0z" fill="#3a7cc3"></path><path d="M475 -5L465 5L465 15L465 25L455 35L445 45L435 55L435 65L435 75L435 85" stroke="#3a7cc3" stroke-width="1.67"></path><path d="M432.5 85 a2.5 2.5 0 1 0 5 0 a2.5 2.5 0 1 0 -5 0z" fill="#3a7cc3"></path><path d="M1005 295L995 305L995 315L995 325L995 335L1005 345L1005 355M1015 205L1005 215M1005 315L1015 325L1015 335L1015 345L1015 355L1015 365M1005 305L1015 315L1025 325L1035 335L1045 345L1045 355L1045 365L1045 375M1015 265L1025 275L1025 285M1015 175L1005 185M1015 115L1005 125L1005 135L1005 145L1005 155M1015 85L1005 95L1005 105L1005 115M965 -5L975 5L975 15L985 25L995 35L1005 45L1005 55L1015 65L1015 75L1015 85L1015 95L1015 105L1015 115L1015 125L1015 135L1015 145L1015 155L1015 165L1015 175L1015 185L1015 195L1015 205L1015 215L1015 225L1015 235L1015 245L1015 255L1015 265L1015 275L1015 285L1005 295L1005 305L1005 315L1005 325L1005 335" stroke="#3a7cc3" stroke-width="1.67"></path><path d="M1002.5 335 a2.5 2.5 0 1 0 5 0 a2.5 2.5 0 1 0 -5 0zM1002.5 355 a2.5 2.5 0 1 0 5 0 a2.5 2.5 0 1 0 -5 0zM1002.5 215 a2.5 2.5 0 1 0 5 0 a2.5 2.5 0 1 0 -5 0zM1012.5 365 a2.5 2.5 0 1 0 5 0 a2.5 2.5 0 1 0 -5 0zM1042.5 375 a2.5 2.5 0 1 0 5 0 a2.5 2.5 0 1 0 -5 0zM1022.5 285 a2.5 2.5 0 1 0 5 0 a2.5 2.5 0 1 0 -5 0zM1002.5 185 a2.5 2.5 0 1 0 5 0 a2.5 2.5 0 1 0 -5 0zM1002.5 155 a2.5 2.5 0 1 0 5 0 a2.5 2.5 0 1 0 -5 0zM1002.5 115 a2.5 2.5 0 1 0 5 0 a2.5 2.5 0 1 0 -5 0z" fill="#3a7cc3"></path><path d="M465 -5L455 5L455 15L455 25L445 35L435 45" stroke="#dd1133" stroke-width="1.67"></path><path d="M432.5 45 a2.5 2.5 0 1 0 5 0 a2.5 2.5 0 1 0 -5 0z" fill="#dd1133"></path><path d="M1025 75L1035 85L1035 95L1035 105M1025 155L1035 165L1035 175L1035 185L1035 195L1035 205M1025 125L1035 135L1035 145L1035 155L1045 165L1045 175L1045 185L1045 195L1045 205L1045 215M985 5L985 15M975 -5L985 5L995 15L995 25L1005 35L1015 45L1015 55L1025 65L1025 75L1025 85L1025 95L1025 105L1025 115L1025 125L1025 135L1025 145L1025 155L1025 165L1025 175L1025 185L1025 195L1025 205L1025 215" stroke="#dd1133" stroke-width="1.67"></path><path d="M1022.5 215 a2.5 2.5 0 1 0 5 0 a2.5 2.5 0 1 0 -5 0zM1032.5 105 a2.5 2.5 0 1 0 5 0 a2.5 2.5 0 1 0 -5 0zM1032.5 205 a2.5 2.5 0 1 0 5 0 a2.5 2.5 0 1 0 -5 0zM1042.5 215 a2.5 2.5 0 1 0 5 0 a2.5 2.5 0 1 0 -5 0zM982.5 15 a2.5 2.5 0 1 0 5 0 a2.5 2.5 0 1 0 -5 0z" fill="#dd1133"></path><path d="M425 95L435 105M435 125L425 135M425 75L415 85M455 -5L445 5L445 15L445 25L435 35L425 45L425 55L425 65L425 75L425 85L425 95L425 105L425 115L435 125L435 135L435 145L435 155L435 165L435 175L435 185L435 195L425 205" stroke="#dd1133" stroke-width="1.67"></path><path d="M422.5 205 a2.5 2.5 0 1 0 5 0 a2.5 2.5 0 1 0 -5 0zM432.5 105 a2.5 2.5 0 1 0 5 0 a2.5 2.5 0 1 0 -5 0zM422.5 135 a2.5 2.5 0 1 0 5 0 a2.5 2.5 0 1 0 -5 0zM412.5 85 a2.5 2.5 0 1 0 5 0 a2.5 2.5 0 1 0 -5 0z" fill="#dd1133"></path><path d="M1045 95L1045 105L1045 115L1045 125M985 -5L995 5L1005 15L1005 25L1015 35L1025 45L1025 55L1035 65L1045 75L1045 85L1045 95L1055 105" stroke="#dd1133" stroke-width="1.67"></path><path d="M1052.5 105 a2.5 2.5 0 1 0 5 0 a2.5 2.5 0 1 0 -5 0zM1042.5 125 a2.5 2.5 0 1 0 5 0 a2.5 2.5 0 1 0 -5 0z" fill="#dd1133"></path><path d="M445 -5L435 5L435 15L435 25L425 35L415 45L415 55L415 65" stroke="#dd1133" stroke-width="1.67"></path><path d="M412.5 65 a2.5 2.5 0 1 0 5 0 a2.5 2.5 0 1 0 -5 0z" fill="#dd1133"></path><path d="M1065 115L1055 125M1065 125L1065 135L1065 145L1065 155M1035 45L1035 55M1055 135L1045 145L1045 155L1055 165L1055 175M995 -5L1005 5L1015 15L1015 25L1025 35L1035 45L1045 55L1045 65L1055 75L1055 85L1055 95L1065 105L1065 115L1065 125L1055 135L1055 145" stroke="#3a7cc3" stroke-width="1.67"></path><path d="M1052.5 145 a2.5 2.5 0 1 0 5 0 a2.5 2.5 0 1 0 -5 0zM1052.5 125 a2.5 2.5 0 1 0 5 0 a2.5 2.5 0 1 0 -5 0zM1062.5 155 a2.5 2.5 0 1 0 5 0 a2.5 2.5 0 1 0 -5 0zM1032.5 55 a2.5 2.5 0 1 0 5 0 a2.5 2.5 0 1 0 -5 0zM1052.5 175 a2.5 2.5 0 1 0 5 0 a2.5 2.5 0 1 0 -5 0z" fill="#3a7cc3"></path><path d="M415 275L405 285L405 295L405 305M415 105L405 115L405 125L405 135M405 85L405 95L405 105M425 145L415 155L415 165L415 175L415 185M415 235L405 245L405 255L405 265L405 275L395 285L395 295L395 305M415 135L415 145L405 155L405 165L405 175M425 185L425 195M435 -5L425 5L425 15L425 25L415 35L405 45L405 55L405 65L405 75L405 85L415 95L415 105L415 115L415 125L415 135L425 145L425 155L425 165L425 175L425 185L415 195L415 205L415 215L415 225L415 235L415 245L415 255L415 265L415 275L415 285L415 295" stroke="#3a7cc3" stroke-width="1.67"></path><path d="M412.5 295 a2.5 2.5 0 1 0 5 0 a2.5 2.5 0 1 0 -5 0zM402.5 305 a2.5 2.5 0 1 0 5 0 a2.5 2.5 0 1 0 -5 0zM402.5 135 a2.5 2.5 0 1 0 5 0 a2.5 2.5 0 1 0 -5 0zM402.5 105 a2.5 2.5 0 1 0 5 0 a2.5 2.5 0 1 0 -5 0zM412.5 185 a2.5 2.5 0 1 0 5 0 a2.5 2.5 0 1 0 -5 0zM392.5 305 a2.5 2.5 0 1 0 5 0 a2.5 2.5 0 1 0 -5 0zM402.5 175 a2.5 2.5 0 1 0 5 0 a2.5 2.5 0 1 0 -5 0zM422.5 195 a2.5 2.5 0 1 0 5 0 a2.5 2.5 0 1 0 -5 0z" fill="#3a7cc3"></path><path d="M1005 -5L1015 5L1025 15" stroke="#dd1133" stroke-width="1.67"></path><path d="M1022.5 15 a2.5 2.5 0 1 0 5 0 a2.5 2.5 0 1 0 -5 0z" fill="#dd1133"></path><path d="M425 -5L415 5L415 15L415 25L405 35L395 45L395 55L395 65L395 75L395 85L395 95L395 105L395 115L395 125L395 135L395 145L395 155L395 165" stroke="#3a7cc3" stroke-width="1.67"></path><path d="M392.5 165 a2.5 2.5 0 1 0 5 0 a2.5 2.5 0 1 0 -5 0z" fill="#3a7cc3"></path><path d="M1015 -5L1025 5L1035 15L1035 25" stroke="#dd1133" stroke-width="1.67"></path><path d="M1032.5 25 a2.5 2.5 0 1 0 5 0 a2.5 2.5 0 1 0 -5 0z" fill="#dd1133"></path><path d="M385 175L395 185L395 195L395 205L395 215L395 225L395 235L395 245L395 255L395 265L395 275M385 305L375 315M385 235L375 245M385 65L375 75L375 85M385 155L375 165M385 125L375 135L375 145L375 155M385 315L395 325L395 335L395 345L395 355M385 215L375 225L375 235L365 245L365 255L365 265L365 275L365 285L365 295L355 305L355 315L355 325M415 -5L405 5L405 15L405 25L395 35L385 45L385 55L385 65L385 75L385 85L385 95L385 105L385 115L385 125L385 135L385 145L385 155L385 165L385 175L385 185L385 195L385 205L385 215L385 225L385 235L385 245L385 255L385 265L385 275L385 285L385 295L385 305L385 315L385 325L385 335" stroke="#dd1133" stroke-width="1.67"></path><path d="M382.5 335 a2.5 2.5 0 1 0 5 0 a2.5 2.5 0 1 0 -5 0zM392.5 275 a2.5 2.5 0 1 0 5 0 a2.5 2.5 0 1 0 -5 0zM372.5 315 a2.5 2.5 0 1 0 5 0 a2.5 2.5 0 1 0 -5 0zM372.5 245 a2.5 2.5 0 1 0 5 0 a2.5 2.5 0 1 0 -5 0zM372.5 85 a2.5 2.5 0 1 0 5 0 a2.5 2.5 0 1 0 -5 0zM372.5 165 a2.5 2.5 0 1 0 5 0 a2.5 2.5 0 1 0 -5 0zM372.5 155 a2.5 2.5 0 1 0 5 0 a2.5 2.5 0 1 0 -5 0zM392.5 355 a2.5 2.5 0 1 0 5 0 a2.5 2.5 0 1 0 -5 0zM352.5 325 a2.5 2.5 0 1 0 5 0 a2.5 2.5 0 1 0 -5 0z" fill="#dd1133"></path><path d="M1025 -5L1035 5L1045 15" stroke="#dd1133" stroke-width="1.67"></path><path d="M1042.5 15 a2.5 2.5 0 1 0 5 0 a2.5 2.5 0 1 0 -5 0z" fill="#dd1133"></path><path d="M405 -5L395 5L395 15L395 25L385 35L375 45" stroke="#3a7cc3" stroke-width="1.67"></path><path d="M372.5 45 a2.5 2.5 0 1 0 5 0 a2.5 2.5 0 1 0 -5 0z" fill="#3a7cc3"></path><path d="M1075 305L1085 315L1085 325L1075 335L1075 345L1075 355M1085 185L1085 195M1075 215L1065 225L1065 235L1065 245M1075 285L1085 295L1085 305L1095 315M1075 205L1085 215L1085 225L1085 235L1085 245L1085 255M1065 85L1065 95M1075 265L1065 275M1065 355L1055 365L1055 375M1075 315L1065 325L1055 335L1055 345L1055 355M1035 -5L1045 5L1055 15L1055 25L1055 35L1055 45L1055 55L1065 65L1065 75L1065 85L1075 95L1075 105L1075 115L1075 125L1085 135L1085 145L1085 155L1085 165L1085 175L1085 185L1075 195L1075 205L1075 215L1075 225L1075 235L1075 245L1075 255L1075 265L1075 275L1075 285L1075 295L1075 305L1075 315L1075 325L1065 335L1065 345L1065 355L1065 365L1065 375" stroke="#dd1133" stroke-width="1.67"></path><path d="M1062.5 375 a2.5 2.5 0 1 0 5 0 a2.5 2.5 0 1 0 -5 0zM1072.5 355 a2.5 2.5 0 1 0 5 0 a2.5 2.5 0 1 0 -5 0zM1082.5 195 a2.5 2.5 0 1 0 5 0 a2.5 2.5 0 1 0 -5 0zM1062.5 245 a2.5 2.5 0 1 0 5 0 a2.5 2.5 0 1 0 -5 0zM1092.5 315 a2.5 2.5 0 1 0 5 0 a2.5 2.5 0 1 0 -5 0zM1082.5 255 a2.5 2.5 0 1 0 5 0 a2.5 2.5 0 1 0 -5 0zM1062.5 95 a2.5 2.5 0 1 0 5 0 a2.5 2.5 0 1 0 -5 0zM1062.5 275 a2.5 2.5 0 1 0 5 0 a2.5 2.5 0 1 0 -5 0zM1052.5 375 a2.5 2.5 0 1 0 5 0 a2.5 2.5 0 1 0 -5 0zM1052.5 355 a2.5 2.5 0 1 0 5 0 a2.5 2.5 0 1 0 -5 0z" fill="#dd1133"></path><path d="M365 75L355 85L355 95L355 105L355 115M365 55L375 65M395 -5L385 5L385 15L385 25L375 35L365 45L365 55L365 65L365 75L365 85L365 95" stroke="#dd1133" stroke-width="1.67"></path><path d="M362.5 95 a2.5 2.5 0 1 0 5 0 a2.5 2.5 0 1 0 -5 0zM352.5 115 a2.5 2.5 0 1 0 5 0 a2.5 2.5 0 1 0 -5 0zM372.5 65 a2.5 2.5 0 1 0 5 0 a2.5 2.5 0 1 0 -5 0z" fill="#dd1133"></path><path d="M1105 185L1095 195L1095 205L1095 215L1095 225L1095 235L1095 245L1095 255L1095 265L1095 275M1095 175L1095 185M1105 195L1115 205L1115 215L1115 225L1115 235L1115 245L1115 255M1045 -5L1055 5L1065 15L1065 25L1065 35L1065 45L1065 55L1075 65L1075 75L1075 85L1085 95L1085 105L1085 115L1085 125L1095 135L1095 145L1095 155L1095 165L1095 175L1105 185L1105 195L1105 205L1105 215" stroke="#3a7cc3" stroke-width="1.67"></path><path d="M1102.5 215 a2.5 2.5 0 1 0 5 0 a2.5 2.5 0 1 0 -5 0zM1092.5 275 a2.5 2.5 0 1 0 5 0 a2.5 2.5 0 1 0 -5 0zM1092.5 185 a2.5 2.5 0 1 0 5 0 a2.5 2.5 0 1 0 -5 0zM1112.5 255 a2.5 2.5 0 1 0 5 0 a2.5 2.5 0 1 0 -5 0z" fill="#3a7cc3"></path><path d="M355 65L355 75M385 -5L375 5L375 15L375 25L365 35L355 45L355 55L355 65L345 75L345 85L345 95L345 105" stroke="#3a7cc3" stroke-width="1.67"></path><path d="M342.5 105 a2.5 2.5 0 1 0 5 0 a2.5 2.5 0 1 0 -5 0zM352.5 75 a2.5 2.5 0 1 0 5 0 a2.5 2.5 0 1 0 -5 0z" fill="#3a7cc3"></path><path d="M1055 -5L1065 5L1075 15L1075 25L1075 35L1075 45L1075 55L1085 65L1085 75L1085 85" stroke="#3a7cc3" stroke-width="1.67"></path><path d="M1082.5 85 a2.5 2.5 0 1 0 5 0 a2.5 2.5 0 1 0 -5 0z" fill="#3a7cc3"></path><path d="M335 115L345 125M345 55L345 65M375 -5L365 5L365 15L365 25L355 35L345 45L345 55L335 65L335 75L335 85L335 95L335 105L335 115L335 125" stroke="#3a7cc3" stroke-width="1.67"></path><path d="M332.5 125 a2.5 2.5 0 1 0 5 0 a2.5 2.5 0 1 0 -5 0zM342.5 125 a2.5 2.5 0 1 0 5 0 a2.5 2.5 0 1 0 -5 0zM342.5 65 a2.5 2.5 0 1 0 5 0 a2.5 2.5 0 1 0 -5 0z" fill="#3a7cc3"></path><path d="M1105 165L1115 175L1125 185L1125 195L1125 205M1105 135L1115 145L1115 155L1125 165L1125 175L1135 185M1085 15L1095 25L1095 35M1105 125L1115 135M1085 45L1095 55L1105 65L1105 75M1065 -5L1075 5L1085 15L1085 25L1085 35L1085 45L1085 55L1095 65L1095 75L1095 85L1095 95L1095 105L1095 115L1105 125L1105 135L1105 145L1105 155L1105 165L1105 175L1115 185" stroke="#dd1133" stroke-width="1.67"></path><path d="M1112.5 185 a2.5 2.5 0 1 0 5 0 a2.5 2.5 0 1 0 -5 0zM1122.5 205 a2.5 2.5 0 1 0 5 0 a2.5 2.5 0 1 0 -5 0zM1132.5 185 a2.5 2.5 0 1 0 5 0 a2.5 2.5 0 1 0 -5 0zM1092.5 35 a2.5 2.5 0 1 0 5 0 a2.5 2.5 0 1 0 -5 0zM1112.5 135 a2.5 2.5 0 1 0 5 0 a2.5 2.5 0 1 0 -5 0zM1102.5 75 a2.5 2.5 0 1 0 5 0 a2.5 2.5 0 1 0 -5 0z" fill="#dd1133"></path><path d="M335 265L345 275L355 285L355 295L345 305L345 315M335 275L325 285L325 295L325 305M325 115L315 125M335 285L345 295M335 195L345 205L345 215M325 65L315 75L315 85L315 95L305 105M325 135L315 145M365 -5L355 5L355 15L355 25L345 35L335 45L335 55L325 65L325 75L325 85L325 95L325 105L325 115L325 125L325 135L325 145L325 155L325 165L335 175L335 185L335 195L335 205L335 215L335 225L335 235L335 245L335 255L335 265L335 275L335 285L335 295" stroke="#dd1133" stroke-width="1.67"></path><path d="M332.5 295 a2.5 2.5 0 1 0 5 0 a2.5 2.5 0 1 0 -5 0zM342.5 315 a2.5 2.5 0 1 0 5 0 a2.5 2.5 0 1 0 -5 0zM322.5 305 a2.5 2.5 0 1 0 5 0 a2.5 2.5 0 1 0 -5 0zM312.5 125 a2.5 2.5 0 1 0 5 0 a2.5 2.5 0 1 0 -5 0zM342.5 295 a2.5 2.5 0 1 0 5 0 a2.5 2.5 0 1 0 -5 0zM342.5 215 a2.5 2.5 0 1 0 5 0 a2.5 2.5 0 1 0 -5 0zM302.5 105 a2.5 2.5 0 1 0 5 0 a2.5 2.5 0 1 0 -5 0zM312.5 145 a2.5 2.5 0 1 0 5 0 a2.5 2.5 0 1 0 -5 0z" fill="#dd1133"></path></g></g><defs><mask id="SvgjsMask1617"><rect width="1433" height="568" fill="#ffffff"></rect></mask><mask id="SvgjsMask1618"><rect width="1433" height="568" fill="white"></rect><path d="M733.75 315 a1.25 1.25 0 1 0 2.5 0 a1.25 1.25 0 1 0 -2.5 0zM723.75 95 a1.25 1.25 0 1 0 2.5 0 a1.25 1.25 0 1 0 -2.5 0zM733.75 245 a1.25 1.25 0 1 0 2.5 0 a1.25 1.25 0 1 0 -2.5 0zM713.75 95 a1.25 1.25 0 1 0 2.5 0 a1.25 1.25 0 1 0 -2.5 0zM753.75 375 a1.25 1.25 0 1 0 2.5 0 a1.25 1.25 0 1 0 -2.5 0zM733.75 165 a1.25 1.25 0 1 0 2.5 0 a1.25 1.25 0 1 0 -2.5 0zM723.75 195 a1.25 1.25 0 1 0 2.5 0 a1.25 1.25 0 1 0 -2.5 0zM723.75 215 a1.25 1.25 0 1 0 2.5 0 a1.25 1.25 0 1 0 -2.5 0zM723.75 85 a1.25 1.25 0 1 0 2.5 0 a1.25 1.25 0 1 0 -2.5 0z" fill="black"></path><path d="M733.75 265 a1.25 1.25 0 1 0 2.5 0 a1.25 1.25 0 1 0 -2.5 0zM733.75 155 a1.25 1.25 0 1 0 2.5 0 a1.25 1.25 0 1 0 -2.5 0zM763.75 165 a1.25 1.25 0 1 0 2.5 0 a1.25 1.25 0 1 0 -2.5 0zM753.75 235 a1.25 1.25 0 1 0 2.5 0 a1.25 1.25 0 1 0 -2.5 0zM743.75 285 a1.25 1.25 0 1 0 2.5 0 a1.25 1.25 0 1 0 -2.5 0zM753.75 225 a1.25 1.25 0 1 0 2.5 0 a1.25 1.25 0 1 0 -2.5 0zM733.75 25 a1.25 1.25 0 1 0 2.5 0 a1.25 1.25 0 1 0 -2.5 0zM733.75 135 a1.25 1.25 0 1 0 2.5 0 a1.25 1.25 0 1 0 -2.5 0z" fill="black"></path><path d="M693.75 345 a1.25 1.25 0 1 0 2.5 0 a1.25 1.25 0 1 0 -2.5 0zM703.75 225 a1.25 1.25 0 1 0 2.5 0 a1.25 1.25 0 1 0 -2.5 0zM703.75 155 a1.25 1.25 0 1 0 2.5 0 a1.25 1.25 0 1 0 -2.5 0zM703.75 275 a1.25 1.25 0 1 0 2.5 0 a1.25 1.25 0 1 0 -2.5 0zM713.75 65 a1.25 1.25 0 1 0 2.5 0 a1.25 1.25 0 1 0 -2.5 0zM703.75 185 a1.25 1.25 0 1 0 2.5 0 a1.25 1.25 0 1 0 -2.5 0zM713.75 345 a1.25 1.25 0 1 0 2.5 0 a1.25 1.25 0 1 0 -2.5 0zM683.75 315 a1.25 1.25 0 1 0 2.5 0 a1.25 1.25 0 1 0 -2.5 0zM703.75 175 a1.25 1.25 0 1 0 2.5 0 a1.25 1.25 0 1 0 -2.5 0zM703.75 125 a1.25 1.25 0 1 0 2.5 0 a1.25 1.25 0 1 0 -2.5 0z" fill="black"></path><path d="M753.75 75 a1.25 1.25 0 1 0 2.5 0 a1.25 1.25 0 1 0 -2.5 0z" fill="black"></path><path d="M683.75 195 a1.25 1.25 0 1 0 2.5 0 a1.25 1.25 0 1 0 -2.5 0zM683.75 185 a1.25 1.25 0 1 0 2.5 0 a1.25 1.25 0 1 0 -2.5 0zM683.75 65 a1.25 1.25 0 1 0 2.5 0 a1.25 1.25 0 1 0 -2.5 0zM673.75 175 a1.25 1.25 0 1 0 2.5 0 a1.25 1.25 0 1 0 -2.5 0zM663.75 165 a1.25 1.25 0 1 0 2.5 0 a1.25 1.25 0 1 0 -2.5 0zM663.75 145 a1.25 1.25 0 1 0 2.5 0 a1.25 1.25 0 1 0 -2.5 0z" fill="black"></path><path d="M783.75 205 a1.25 1.25 0 1 0 2.5 0 a1.25 1.25 0 1 0 -2.5 0zM773.75 205 a1.25 1.25 0 1 0 2.5 0 a1.25 1.25 0 1 0 -2.5 0zM773.75 185 a1.25 1.25 0 1 0 2.5 0 a1.25 1.25 0 1 0 -2.5 0zM763.75 135 a1.25 1.25 0 1 0 2.5 0 a1.25 1.25 0 1 0 -2.5 0zM793.75 205 a1.25 1.25 0 1 0 2.5 0 a1.25 1.25 0 1 0 -2.5 0zM773.75 95 a1.25 1.25 0 1 0 2.5 0 a1.25 1.25 0 1 0 -2.5 0z" fill="black"></path><path d="M653.75 155 a1.25 1.25 0 1 0 2.5 0 a1.25 1.25 0 1 0 -2.5 0zM663.75 105 a1.25 1.25 0 1 0 2.5 0 a1.25 1.25 0 1 0 -2.5 0zM643.75 165 a1.25 1.25 0 1 0 2.5 0 a1.25 1.25 0 1 0 -2.5 0zM683.75 55 a1.25 1.25 0 1 0 2.5 0 a1.25 1.25 0 1 0 -2.5 0zM663.75 135 a1.25 1.25 0 1 0 2.5 0 a1.25 1.25 0 1 0 -2.5 0z" fill="black"></path><path d="M803.75 225 a1.25 1.25 0 1 0 2.5 0 a1.25 1.25 0 1 0 -2.5 0zM763.75 55 a1.25 1.25 0 1 0 2.5 0 a1.25 1.25 0 1 0 -2.5 0zM773.75 85 a1.25 1.25 0 1 0 2.5 0 a1.25 1.25 0 1 0 -2.5 0zM793.75 195 a1.25 1.25 0 1 0 2.5 0 a1.25 1.25 0 1 0 -2.5 0zM793.75 185 a1.25 1.25 0 1 0 2.5 0 a1.25 1.25 0 1 0 -2.5 0zM793.75 245 a1.25 1.25 0 1 0 2.5 0 a1.25 1.25 0 1 0 -2.5 0z" fill="black"></path><path d="M623.75 315 a1.25 1.25 0 1 0 2.5 0 a1.25 1.25 0 1 0 -2.5 0zM653.75 295 a1.25 1.25 0 1 0 2.5 0 a1.25 1.25 0 1 0 -2.5 0zM663.75 295 a1.25 1.25 0 1 0 2.5 0 a1.25 1.25 0 1 0 -2.5 0zM643.75 145 a1.25 1.25 0 1 0 2.5 0 a1.25 1.25 0 1 0 -2.5 0zM633.75 375 a1.25 1.25 0 1 0 2.5 0 a1.25 1.25 0 1 0 -2.5 0zM643.75 245 a1.25 1.25 0 1 0 2.5 0 a1.25 1.25 0 1 0 -2.5 0zM633.75 235 a1.25 1.25 0 1 0 2.5 0 a1.25 1.25 0 1 0 -2.5 0zM633.75 275 a1.25 1.25 0 1 0 2.5 0 a1.25 1.25 0 1 0 -2.5 0zM633.75 225 a1.25 1.25 0 1 0 2.5 0 a1.25 1.25 0 1 0 -2.5 0z" fill="black"></path><path d="M793.75 125 a1.25 1.25 0 1 0 2.5 0 a1.25 1.25 0 1 0 -2.5 0z" fill="black"></path><path d="M613.75 355 a1.25 1.25 0 1 0 2.5 0 a1.25 1.25 0 1 0 -2.5 0zM603.75 375 a1.25 1.25 0 1 0 2.5 0 a1.25 1.25 0 1 0 -2.5 0zM603.75 335 a1.25 1.25 0 1 0 2.5 0 a1.25 1.25 0 1 0 -2.5 0zM623.75 375 a1.25 1.25 0 1 0 2.5 0 a1.25 1.25 0 1 0 -2.5 0zM623.75 345 a1.25 1.25 0 1 0 2.5 0 a1.25 1.25 0 1 0 -2.5 0z" fill="black"></path><path d="M803.75 365 a1.25 1.25 0 1 0 2.5 0 a1.25 1.25 0 1 0 -2.5 0zM813.75 145 a1.25 1.25 0 1 0 2.5 0 a1.25 1.25 0 1 0 -2.5 0zM813.75 135 a1.25 1.25 0 1 0 2.5 0 a1.25 1.25 0 1 0 -2.5 0zM813.75 245 a1.25 1.25 0 1 0 2.5 0 a1.25 1.25 0 1 0 -2.5 0zM813.75 375 a1.25 1.25 0 1 0 2.5 0 a1.25 1.25 0 1 0 -2.5 0zM823.75 335 a1.25 1.25 0 1 0 2.5 0 a1.25 1.25 0 1 0 -2.5 0zM823.75 275 a1.25 1.25 0 1 0 2.5 0 a1.25 1.25 0 1 0 -2.5 0zM793.75 305 a1.25 1.25 0 1 0 2.5 0 a1.25 1.25 0 1 0 -2.5 0zM783.75 305 a1.25 1.25 0 1 0 2.5 0 a1.25 1.25 0 1 0 -2.5 0zM783.75 345 a1.25 1.25 0 1 0 2.5 0 a1.25 1.25 0 1 0 -2.5 0z" fill="black"></path><path d="M593.75 295 a1.25 1.25 0 1 0 2.5 0 a1.25 1.25 0 1 0 -2.5 0zM633.75 75 a1.25 1.25 0 1 0 2.5 0 a1.25 1.25 0 1 0 -2.5 0zM593.75 235 a1.25 1.25 0 1 0 2.5 0 a1.25 1.25 0 1 0 -2.5 0zM633.75 55 a1.25 1.25 0 1 0 2.5 0 a1.25 1.25 0 1 0 -2.5 0zM593.75 285 a1.25 1.25 0 1 0 2.5 0 a1.25 1.25 0 1 0 -2.5 0zM623.75 135 a1.25 1.25 0 1 0 2.5 0 a1.25 1.25 0 1 0 -2.5 0zM603.75 295 a1.25 1.25 0 1 0 2.5 0 a1.25 1.25 0 1 0 -2.5 0zM623.75 125 a1.25 1.25 0 1 0 2.5 0 a1.25 1.25 0 1 0 -2.5 0z" fill="black"></path><path d="M813.75 95 a1.25 1.25 0 1 0 2.5 0 a1.25 1.25 0 1 0 -2.5 0z" fill="black"></path><path d="M623.75 35 a1.25 1.25 0 1 0 2.5 0 a1.25 1.25 0 1 0 -2.5 0z" fill="black"></path><path d="M603.75 185 a1.25 1.25 0 1 0 2.5 0 a1.25 1.25 0 1 0 -2.5 0zM593.75 205 a1.25 1.25 0 1 0 2.5 0 a1.25 1.25 0 1 0 -2.5 0zM613.75 95 a1.25 1.25 0 1 0 2.5 0 a1.25 1.25 0 1 0 -2.5 0zM613.75 65 a1.25 1.25 0 1 0 2.5 0 a1.25 1.25 0 1 0 -2.5 0zM593.75 175 a1.25 1.25 0 1 0 2.5 0 a1.25 1.25 0 1 0 -2.5 0z" fill="black"></path><path d="M833.75 375 a1.25 1.25 0 1 0 2.5 0 a1.25 1.25 0 1 0 -2.5 0zM823.75 325 a1.25 1.25 0 1 0 2.5 0 a1.25 1.25 0 1 0 -2.5 0zM833.75 145 a1.25 1.25 0 1 0 2.5 0 a1.25 1.25 0 1 0 -2.5 0zM833.75 195 a1.25 1.25 0 1 0 2.5 0 a1.25 1.25 0 1 0 -2.5 0zM833.75 245 a1.25 1.25 0 1 0 2.5 0 a1.25 1.25 0 1 0 -2.5 0zM843.75 135 a1.25 1.25 0 1 0 2.5 0 a1.25 1.25 0 1 0 -2.5 0zM823.75 165 a1.25 1.25 0 1 0 2.5 0 a1.25 1.25 0 1 0 -2.5 0zM843.75 355 a1.25 1.25 0 1 0 2.5 0 a1.25 1.25 0 1 0 -2.5 0zM833.75 235 a1.25 1.25 0 1 0 2.5 0 a1.25 1.25 0 1 0 -2.5 0zM833.75 115 a1.25 1.25 0 1 0 2.5 0 a1.25 1.25 0 1 0 -2.5 0z" fill="black"></path><path d="M583.75 335 a1.25 1.25 0 1 0 2.5 0 a1.25 1.25 0 1 0 -2.5 0zM553.75 325 a1.25 1.25 0 1 0 2.5 0 a1.25 1.25 0 1 0 -2.5 0zM543.75 335 a1.25 1.25 0 1 0 2.5 0 a1.25 1.25 0 1 0 -2.5 0zM573.75 345 a1.25 1.25 0 1 0 2.5 0 a1.25 1.25 0 1 0 -2.5 0zM593.75 255 a1.25 1.25 0 1 0 2.5 0 a1.25 1.25 0 1 0 -2.5 0zM563.75 345 a1.25 1.25 0 1 0 2.5 0 a1.25 1.25 0 1 0 -2.5 0zM593.75 275 a1.25 1.25 0 1 0 2.5 0 a1.25 1.25 0 1 0 -2.5 0zM543.75 305 a1.25 1.25 0 1 0 2.5 0 a1.25 1.25 0 1 0 -2.5 0z" fill="black"></path><path d="M853.75 345 a1.25 1.25 0 1 0 2.5 0 a1.25 1.25 0 1 0 -2.5 0zM843.75 195 a1.25 1.25 0 1 0 2.5 0 a1.25 1.25 0 1 0 -2.5 0zM843.75 325 a1.25 1.25 0 1 0 2.5 0 a1.25 1.25 0 1 0 -2.5 0zM863.75 355 a1.25 1.25 0 1 0 2.5 0 a1.25 1.25 0 1 0 -2.5 0zM863.75 255 a1.25 1.25 0 1 0 2.5 0 a1.25 1.25 0 1 0 -2.5 0zM843.75 165 a1.25 1.25 0 1 0 2.5 0 a1.25 1.25 0 1 0 -2.5 0zM843.75 295 a1.25 1.25 0 1 0 2.5 0 a1.25 1.25 0 1 0 -2.5 0zM843.75 285 a1.25 1.25 0 1 0 2.5 0 a1.25 1.25 0 1 0 -2.5 0zM843.75 185 a1.25 1.25 0 1 0 2.5 0 a1.25 1.25 0 1 0 -2.5 0zM873.75 265 a1.25 1.25 0 1 0 2.5 0 a1.25 1.25 0 1 0 -2.5 0z" fill="black"></path><path d="M573.75 225 a1.25 1.25 0 1 0 2.5 0 a1.25 1.25 0 1 0 -2.5 0z" fill="black"></path><path d="M863.75 195 a1.25 1.25 0 1 0 2.5 0 a1.25 1.25 0 1 0 -2.5 0zM873.75 205 a1.25 1.25 0 1 0 2.5 0 a1.25 1.25 0 1 0 -2.5 0z" fill="black"></path><path d="M553.75 235 a1.25 1.25 0 1 0 2.5 0 a1.25 1.25 0 1 0 -2.5 0zM553.75 275 a1.25 1.25 0 1 0 2.5 0 a1.25 1.25 0 1 0 -2.5 0zM573.75 85 a1.25 1.25 0 1 0 2.5 0 a1.25 1.25 0 1 0 -2.5 0zM563.75 135 a1.25 1.25 0 1 0 2.5 0 a1.25 1.25 0 1 0 -2.5 0zM573.75 55 a1.25 1.25 0 1 0 2.5 0 a1.25 1.25 0 1 0 -2.5 0zM573.75 115 a1.25 1.25 0 1 0 2.5 0 a1.25 1.25 0 1 0 -2.5 0z" fill="black"></path><path d="M873.75 175 a1.25 1.25 0 1 0 2.5 0 a1.25 1.25 0 1 0 -2.5 0zM843.75 75 a1.25 1.25 0 1 0 2.5 0 a1.25 1.25 0 1 0 -2.5 0z" fill="black"></path><path d="M543.75 245 a1.25 1.25 0 1 0 2.5 0 a1.25 1.25 0 1 0 -2.5 0zM543.75 225 a1.25 1.25 0 1 0 2.5 0 a1.25 1.25 0 1 0 -2.5 0zM543.75 165 a1.25 1.25 0 1 0 2.5 0 a1.25 1.25 0 1 0 -2.5 0zM553.75 145 a1.25 1.25 0 1 0 2.5 0 a1.25 1.25 0 1 0 -2.5 0zM573.75 45 a1.25 1.25 0 1 0 2.5 0 a1.25 1.25 0 1 0 -2.5 0zM553.75 115 a1.25 1.25 0 1 0 2.5 0 a1.25 1.25 0 1 0 -2.5 0zM553.75 105 a1.25 1.25 0 1 0 2.5 0 a1.25 1.25 0 1 0 -2.5 0z" fill="black"></path><path d="M873.75 115 a1.25 1.25 0 1 0 2.5 0 a1.25 1.25 0 1 0 -2.5 0z" fill="black"></path><path d="M553.75 75 a1.25 1.25 0 1 0 2.5 0 a1.25 1.25 0 1 0 -2.5 0zM543.75 85 a1.25 1.25 0 1 0 2.5 0 a1.25 1.25 0 1 0 -2.5 0zM543.75 65 a1.25 1.25 0 1 0 2.5 0 a1.25 1.25 0 1 0 -2.5 0z" fill="black"></path><path d="M883.75 225 a1.25 1.25 0 1 0 2.5 0 a1.25 1.25 0 1 0 -2.5 0zM873.75 85 a1.25 1.25 0 1 0 2.5 0 a1.25 1.25 0 1 0 -2.5 0zM893.75 205 a1.25 1.25 0 1 0 2.5 0 a1.25 1.25 0 1 0 -2.5 0zM893.75 245 a1.25 1.25 0 1 0 2.5 0 a1.25 1.25 0 1 0 -2.5 0z" fill="black"></path><path d="M543.75 285 a1.25 1.25 0 1 0 2.5 0 a1.25 1.25 0 1 0 -2.5 0zM523.75 165 a1.25 1.25 0 1 0 2.5 0 a1.25 1.25 0 1 0 -2.5 0zM543.75 115 a1.25 1.25 0 1 0 2.5 0 a1.25 1.25 0 1 0 -2.5 0zM523.75 275 a1.25 1.25 0 1 0 2.5 0 a1.25 1.25 0 1 0 -2.5 0zM523.75 115 a1.25 1.25 0 1 0 2.5 0 a1.25 1.25 0 1 0 -2.5 0zM543.75 55 a1.25 1.25 0 1 0 2.5 0 a1.25 1.25 0 1 0 -2.5 0zM523.75 205 a1.25 1.25 0 1 0 2.5 0 a1.25 1.25 0 1 0 -2.5 0zM523.75 195 a1.25 1.25 0 1 0 2.5 0 a1.25 1.25 0 1 0 -2.5 0z" fill="black"></path><path d="M923.75 335 a1.25 1.25 0 1 0 2.5 0 a1.25 1.25 0 1 0 -2.5 0zM903.75 275 a1.25 1.25 0 1 0 2.5 0 a1.25 1.25 0 1 0 -2.5 0zM923.75 285 a1.25 1.25 0 1 0 2.5 0 a1.25 1.25 0 1 0 -2.5 0zM923.75 325 a1.25 1.25 0 1 0 2.5 0 a1.25 1.25 0 1 0 -2.5 0zM883.75 55 a1.25 1.25 0 1 0 2.5 0 a1.25 1.25 0 1 0 -2.5 0zM893.75 195 a1.25 1.25 0 1 0 2.5 0 a1.25 1.25 0 1 0 -2.5 0zM913.75 375 a1.25 1.25 0 1 0 2.5 0 a1.25 1.25 0 1 0 -2.5 0zM893.75 265 a1.25 1.25 0 1 0 2.5 0 a1.25 1.25 0 1 0 -2.5 0zM923.75 265 a1.25 1.25 0 1 0 2.5 0 a1.25 1.25 0 1 0 -2.5 0z" fill="black"></path><path d="M513.75 215 a1.25 1.25 0 1 0 2.5 0 a1.25 1.25 0 1 0 -2.5 0zM503.75 195 a1.25 1.25 0 1 0 2.5 0 a1.25 1.25 0 1 0 -2.5 0zM503.75 155 a1.25 1.25 0 1 0 2.5 0 a1.25 1.25 0 1 0 -2.5 0zM513.75 95 a1.25 1.25 0 1 0 2.5 0 a1.25 1.25 0 1 0 -2.5 0zM523.75 85 a1.25 1.25 0 1 0 2.5 0 a1.25 1.25 0 1 0 -2.5 0zM503.75 115 a1.25 1.25 0 1 0 2.5 0 a1.25 1.25 0 1 0 -2.5 0z" fill="black"></path><path d="M873.75 25 a1.25 1.25 0 1 0 2.5 0 a1.25 1.25 0 1 0 -2.5 0z" fill="black"></path><path d="M483.75 265 a1.25 1.25 0 1 0 2.5 0 a1.25 1.25 0 1 0 -2.5 0zM493.75 225 a1.25 1.25 0 1 0 2.5 0 a1.25 1.25 0 1 0 -2.5 0zM493.75 195 a1.25 1.25 0 1 0 2.5 0 a1.25 1.25 0 1 0 -2.5 0zM493.75 155 a1.25 1.25 0 1 0 2.5 0 a1.25 1.25 0 1 0 -2.5 0zM493.75 175 a1.25 1.25 0 1 0 2.5 0 a1.25 1.25 0 1 0 -2.5 0zM463.75 255 a1.25 1.25 0 1 0 2.5 0 a1.25 1.25 0 1 0 -2.5 0zM473.75 275 a1.25 1.25 0 1 0 2.5 0 a1.25 1.25 0 1 0 -2.5 0zM553.75 15 a1.25 1.25 0 1 0 2.5 0 a1.25 1.25 0 1 0 -2.5 0z" fill="black"></path><path d="M923.75 225 a1.25 1.25 0 1 0 2.5 0 a1.25 1.25 0 1 0 -2.5 0zM923.75 215 a1.25 1.25 0 1 0 2.5 0 a1.25 1.25 0 1 0 -2.5 0zM913.75 185 a1.25 1.25 0 1 0 2.5 0 a1.25 1.25 0 1 0 -2.5 0zM903.75 65 a1.25 1.25 0 1 0 2.5 0 a1.25 1.25 0 1 0 -2.5 0zM913.75 125 a1.25 1.25 0 1 0 2.5 0 a1.25 1.25 0 1 0 -2.5 0zM913.75 165 a1.25 1.25 0 1 0 2.5 0 a1.25 1.25 0 1 0 -2.5 0zM913.75 105 a1.25 1.25 0 1 0 2.5 0 a1.25 1.25 0 1 0 -2.5 0z" fill="black"></path><path d="M463.75 365 a1.25 1.25 0 1 0 2.5 0 a1.25 1.25 0 1 0 -2.5 0zM453.75 315 a1.25 1.25 0 1 0 2.5 0 a1.25 1.25 0 1 0 -2.5 0zM463.75 245 a1.25 1.25 0 1 0 2.5 0 a1.25 1.25 0 1 0 -2.5 0zM443.75 265 a1.25 1.25 0 1 0 2.5 0 a1.25 1.25 0 1 0 -2.5 0zM463.75 375 a1.25 1.25 0 1 0 2.5 0 a1.25 1.25 0 1 0 -2.5 0zM453.75 375 a1.25 1.25 0 1 0 2.5 0 a1.25 1.25 0 1 0 -2.5 0zM453.75 305 a1.25 1.25 0 1 0 2.5 0 a1.25 1.25 0 1 0 -2.5 0zM443.75 375 a1.25 1.25 0 1 0 2.5 0 a1.25 1.25 0 1 0 -2.5 0zM473.75 125 a1.25 1.25 0 1 0 2.5 0 a1.25 1.25 0 1 0 -2.5 0zM473.75 115 a1.25 1.25 0 1 0 2.5 0 a1.25 1.25 0 1 0 -2.5 0z" fill="black"></path><path d="M933.75 275 a1.25 1.25 0 1 0 2.5 0 a1.25 1.25 0 1 0 -2.5 0zM943.75 205 a1.25 1.25 0 1 0 2.5 0 a1.25 1.25 0 1 0 -2.5 0zM943.75 235 a1.25 1.25 0 1 0 2.5 0 a1.25 1.25 0 1 0 -2.5 0zM913.75 95 a1.25 1.25 0 1 0 2.5 0 a1.25 1.25 0 1 0 -2.5 0zM943.75 275 a1.25 1.25 0 1 0 2.5 0 a1.25 1.25 0 1 0 -2.5 0zM923.75 245 a1.25 1.25 0 1 0 2.5 0 a1.25 1.25 0 1 0 -2.5 0zM943.75 175 a1.25 1.25 0 1 0 2.5 0 a1.25 1.25 0 1 0 -2.5 0zM923.75 205 a1.25 1.25 0 1 0 2.5 0 a1.25 1.25 0 1 0 -2.5 0z" fill="black"></path><path d="M463.75 195 a1.25 1.25 0 1 0 2.5 0 a1.25 1.25 0 1 0 -2.5 0zM473.75 105 a1.25 1.25 0 1 0 2.5 0 a1.25 1.25 0 1 0 -2.5 0z" fill="black"></path><path d="M943.75 115 a1.25 1.25 0 1 0 2.5 0 a1.25 1.25 0 1 0 -2.5 0zM913.75 25 a1.25 1.25 0 1 0 2.5 0 a1.25 1.25 0 1 0 -2.5 0zM913.75 15 a1.25 1.25 0 1 0 2.5 0 a1.25 1.25 0 1 0 -2.5 0zM933.75 115 a1.25 1.25 0 1 0 2.5 0 a1.25 1.25 0 1 0 -2.5 0z" fill="black"></path><path d="M463.75 95 a1.25 1.25 0 1 0 2.5 0 a1.25 1.25 0 1 0 -2.5 0z" fill="black"></path><path d="M953.75 165 a1.25 1.25 0 1 0 2.5 0 a1.25 1.25 0 1 0 -2.5 0zM943.75 155 a1.25 1.25 0 1 0 2.5 0 a1.25 1.25 0 1 0 -2.5 0zM943.75 75 a1.25 1.25 0 1 0 2.5 0 a1.25 1.25 0 1 0 -2.5 0zM933.75 35 a1.25 1.25 0 1 0 2.5 0 a1.25 1.25 0 1 0 -2.5 0zM943.75 145 a1.25 1.25 0 1 0 2.5 0 a1.25 1.25 0 1 0 -2.5 0z" fill="black"></path><path d="M433.75 365 a1.25 1.25 0 1 0 2.5 0 a1.25 1.25 0 1 0 -2.5 0zM423.75 375 a1.25 1.25 0 1 0 2.5 0 a1.25 1.25 0 1 0 -2.5 0zM443.75 355 a1.25 1.25 0 1 0 2.5 0 a1.25 1.25 0 1 0 -2.5 0zM423.75 315 a1.25 1.25 0 1 0 2.5 0 a1.25 1.25 0 1 0 -2.5 0zM453.75 225 a1.25 1.25 0 1 0 2.5 0 a1.25 1.25 0 1 0 -2.5 0zM443.75 295 a1.25 1.25 0 1 0 2.5 0 a1.25 1.25 0 1 0 -2.5 0zM443.75 245 a1.25 1.25 0 1 0 2.5 0 a1.25 1.25 0 1 0 -2.5 0zM443.75 285 a1.25 1.25 0 1 0 2.5 0 a1.25 1.25 0 1 0 -2.5 0zM443.75 335 a1.25 1.25 0 1 0 2.5 0 a1.25 1.25 0 1 0 -2.5 0z" fill="black"></path><path d="M963.75 125 a1.25 1.25 0 1 0 2.5 0 a1.25 1.25 0 1 0 -2.5 0zM943.75 45 a1.25 1.25 0 1 0 2.5 0 a1.25 1.25 0 1 0 -2.5 0zM933.75 25 a1.25 1.25 0 1 0 2.5 0 a1.25 1.25 0 1 0 -2.5 0z" fill="black"></path><path d="M413.75 315 a1.25 1.25 0 1 0 2.5 0 a1.25 1.25 0 1 0 -2.5 0zM423.75 235 a1.25 1.25 0 1 0 2.5 0 a1.25 1.25 0 1 0 -2.5 0zM423.75 305 a1.25 1.25 0 1 0 2.5 0 a1.25 1.25 0 1 0 -2.5 0zM423.75 225 a1.25 1.25 0 1 0 2.5 0 a1.25 1.25 0 1 0 -2.5 0zM433.75 115 a1.25 1.25 0 1 0 2.5 0 a1.25 1.25 0 1 0 -2.5 0zM413.75 375 a1.25 1.25 0 1 0 2.5 0 a1.25 1.25 0 1 0 -2.5 0z" fill="black"></path><path d="M943.75 335 a1.25 1.25 0 1 0 2.5 0 a1.25 1.25 0 1 0 -2.5 0zM983.75 175 a1.25 1.25 0 1 0 2.5 0 a1.25 1.25 0 1 0 -2.5 0zM933.75 345 a1.25 1.25 0 1 0 2.5 0 a1.25 1.25 0 1 0 -2.5 0zM973.75 185 a1.25 1.25 0 1 0 2.5 0 a1.25 1.25 0 1 0 -2.5 0zM963.75 255 a1.25 1.25 0 1 0 2.5 0 a1.25 1.25 0 1 0 -2.5 0zM973.75 155 a1.25 1.25 0 1 0 2.5 0 a1.25 1.25 0 1 0 -2.5 0zM993.75 145 a1.25 1.25 0 1 0 2.5 0 a1.25 1.25 0 1 0 -2.5 0zM973.75 235 a1.25 1.25 0 1 0 2.5 0 a1.25 1.25 0 1 0 -2.5 0zM973.75 365 a1.25 1.25 0 1 0 2.5 0 a1.25 1.25 0 1 0 -2.5 0z" fill="black"></path><path d="M453.75 55 a1.25 1.25 0 1 0 2.5 0 a1.25 1.25 0 1 0 -2.5 0z" fill="black"></path><path d="M993.75 85 a1.25 1.25 0 1 0 2.5 0 a1.25 1.25 0 1 0 -2.5 0zM983.75 95 a1.25 1.25 0 1 0 2.5 0 a1.25 1.25 0 1 0 -2.5 0zM973.75 55 a1.25 1.25 0 1 0 2.5 0 a1.25 1.25 0 1 0 -2.5 0z" fill="black"></path><path d="M443.75 75 a1.25 1.25 0 1 0 2.5 0 a1.25 1.25 0 1 0 -2.5 0z" fill="black"></path><path d="M1003.75 75 a1.25 1.25 0 1 0 2.5 0 a1.25 1.25 0 1 0 -2.5 0zM983.75 45 a1.25 1.25 0 1 0 2.5 0 a1.25 1.25 0 1 0 -2.5 0z" fill="black"></path><path d="M433.75 85 a1.25 1.25 0 1 0 2.5 0 a1.25 1.25 0 1 0 -2.5 0z" fill="black"></path><path d="M1003.75 335 a1.25 1.25 0 1 0 2.5 0 a1.25 1.25 0 1 0 -2.5 0zM1003.75 355 a1.25 1.25 0 1 0 2.5 0 a1.25 1.25 0 1 0 -2.5 0zM1003.75 215 a1.25 1.25 0 1 0 2.5 0 a1.25 1.25 0 1 0 -2.5 0zM1013.75 365 a1.25 1.25 0 1 0 2.5 0 a1.25 1.25 0 1 0 -2.5 0zM1043.75 375 a1.25 1.25 0 1 0 2.5 0 a1.25 1.25 0 1 0 -2.5 0zM1023.75 285 a1.25 1.25 0 1 0 2.5 0 a1.25 1.25 0 1 0 -2.5 0zM1003.75 185 a1.25 1.25 0 1 0 2.5 0 a1.25 1.25 0 1 0 -2.5 0zM1003.75 155 a1.25 1.25 0 1 0 2.5 0 a1.25 1.25 0 1 0 -2.5 0zM1003.75 115 a1.25 1.25 0 1 0 2.5 0 a1.25 1.25 0 1 0 -2.5 0z" fill="black"></path><path d="M433.75 45 a1.25 1.25 0 1 0 2.5 0 a1.25 1.25 0 1 0 -2.5 0z" fill="black"></path><path d="M1023.75 215 a1.25 1.25 0 1 0 2.5 0 a1.25 1.25 0 1 0 -2.5 0zM1033.75 105 a1.25 1.25 0 1 0 2.5 0 a1.25 1.25 0 1 0 -2.5 0zM1033.75 205 a1.25 1.25 0 1 0 2.5 0 a1.25 1.25 0 1 0 -2.5 0zM1043.75 215 a1.25 1.25 0 1 0 2.5 0 a1.25 1.25 0 1 0 -2.5 0zM983.75 15 a1.25 1.25 0 1 0 2.5 0 a1.25 1.25 0 1 0 -2.5 0z" fill="black"></path><path d="M423.75 205 a1.25 1.25 0 1 0 2.5 0 a1.25 1.25 0 1 0 -2.5 0zM433.75 105 a1.25 1.25 0 1 0 2.5 0 a1.25 1.25 0 1 0 -2.5 0zM423.75 135 a1.25 1.25 0 1 0 2.5 0 a1.25 1.25 0 1 0 -2.5 0zM413.75 85 a1.25 1.25 0 1 0 2.5 0 a1.25 1.25 0 1 0 -2.5 0z" fill="black"></path><path d="M1053.75 105 a1.25 1.25 0 1 0 2.5 0 a1.25 1.25 0 1 0 -2.5 0zM1043.75 125 a1.25 1.25 0 1 0 2.5 0 a1.25 1.25 0 1 0 -2.5 0z" fill="black"></path><path d="M413.75 65 a1.25 1.25 0 1 0 2.5 0 a1.25 1.25 0 1 0 -2.5 0z" fill="black"></path><path d="M1053.75 145 a1.25 1.25 0 1 0 2.5 0 a1.25 1.25 0 1 0 -2.5 0zM1053.75 125 a1.25 1.25 0 1 0 2.5 0 a1.25 1.25 0 1 0 -2.5 0zM1063.75 155 a1.25 1.25 0 1 0 2.5 0 a1.25 1.25 0 1 0 -2.5 0zM1033.75 55 a1.25 1.25 0 1 0 2.5 0 a1.25 1.25 0 1 0 -2.5 0zM1053.75 175 a1.25 1.25 0 1 0 2.5 0 a1.25 1.25 0 1 0 -2.5 0z" fill="black"></path><path d="M413.75 295 a1.25 1.25 0 1 0 2.5 0 a1.25 1.25 0 1 0 -2.5 0zM403.75 305 a1.25 1.25 0 1 0 2.5 0 a1.25 1.25 0 1 0 -2.5 0zM403.75 135 a1.25 1.25 0 1 0 2.5 0 a1.25 1.25 0 1 0 -2.5 0zM403.75 105 a1.25 1.25 0 1 0 2.5 0 a1.25 1.25 0 1 0 -2.5 0zM413.75 185 a1.25 1.25 0 1 0 2.5 0 a1.25 1.25 0 1 0 -2.5 0zM393.75 305 a1.25 1.25 0 1 0 2.5 0 a1.25 1.25 0 1 0 -2.5 0zM403.75 175 a1.25 1.25 0 1 0 2.5 0 a1.25 1.25 0 1 0 -2.5 0zM423.75 195 a1.25 1.25 0 1 0 2.5 0 a1.25 1.25 0 1 0 -2.5 0z" fill="black"></path><path d="M1023.75 15 a1.25 1.25 0 1 0 2.5 0 a1.25 1.25 0 1 0 -2.5 0z" fill="black"></path><path d="M393.75 165 a1.25 1.25 0 1 0 2.5 0 a1.25 1.25 0 1 0 -2.5 0z" fill="black"></path><path d="M1033.75 25 a1.25 1.25 0 1 0 2.5 0 a1.25 1.25 0 1 0 -2.5 0z" fill="black"></path><path d="M383.75 335 a1.25 1.25 0 1 0 2.5 0 a1.25 1.25 0 1 0 -2.5 0zM393.75 275 a1.25 1.25 0 1 0 2.5 0 a1.25 1.25 0 1 0 -2.5 0zM373.75 315 a1.25 1.25 0 1 0 2.5 0 a1.25 1.25 0 1 0 -2.5 0zM373.75 245 a1.25 1.25 0 1 0 2.5 0 a1.25 1.25 0 1 0 -2.5 0zM373.75 85 a1.25 1.25 0 1 0 2.5 0 a1.25 1.25 0 1 0 -2.5 0zM373.75 165 a1.25 1.25 0 1 0 2.5 0 a1.25 1.25 0 1 0 -2.5 0zM373.75 155 a1.25 1.25 0 1 0 2.5 0 a1.25 1.25 0 1 0 -2.5 0zM393.75 355 a1.25 1.25 0 1 0 2.5 0 a1.25 1.25 0 1 0 -2.5 0zM353.75 325 a1.25 1.25 0 1 0 2.5 0 a1.25 1.25 0 1 0 -2.5 0z" fill="black"></path><path d="M1043.75 15 a1.25 1.25 0 1 0 2.5 0 a1.25 1.25 0 1 0 -2.5 0z" fill="black"></path><path d="M373.75 45 a1.25 1.25 0 1 0 2.5 0 a1.25 1.25 0 1 0 -2.5 0z" fill="black"></path><path d="M1063.75 375 a1.25 1.25 0 1 0 2.5 0 a1.25 1.25 0 1 0 -2.5 0zM1073.75 355 a1.25 1.25 0 1 0 2.5 0 a1.25 1.25 0 1 0 -2.5 0zM1083.75 195 a1.25 1.25 0 1 0 2.5 0 a1.25 1.25 0 1 0 -2.5 0zM1063.75 245 a1.25 1.25 0 1 0 2.5 0 a1.25 1.25 0 1 0 -2.5 0zM1093.75 315 a1.25 1.25 0 1 0 2.5 0 a1.25 1.25 0 1 0 -2.5 0zM1083.75 255 a1.25 1.25 0 1 0 2.5 0 a1.25 1.25 0 1 0 -2.5 0zM1063.75 95 a1.25 1.25 0 1 0 2.5 0 a1.25 1.25 0 1 0 -2.5 0zM1063.75 275 a1.25 1.25 0 1 0 2.5 0 a1.25 1.25 0 1 0 -2.5 0zM1053.75 375 a1.25 1.25 0 1 0 2.5 0 a1.25 1.25 0 1 0 -2.5 0zM1053.75 355 a1.25 1.25 0 1 0 2.5 0 a1.25 1.25 0 1 0 -2.5 0z" fill="black"></path><path d="M363.75 95 a1.25 1.25 0 1 0 2.5 0 a1.25 1.25 0 1 0 -2.5 0zM353.75 115 a1.25 1.25 0 1 0 2.5 0 a1.25 1.25 0 1 0 -2.5 0zM373.75 65 a1.25 1.25 0 1 0 2.5 0 a1.25 1.25 0 1 0 -2.5 0z" fill="black"></path><path d="M1103.75 215 a1.25 1.25 0 1 0 2.5 0 a1.25 1.25 0 1 0 -2.5 0zM1093.75 275 a1.25 1.25 0 1 0 2.5 0 a1.25 1.25 0 1 0 -2.5 0zM1093.75 185 a1.25 1.25 0 1 0 2.5 0 a1.25 1.25 0 1 0 -2.5 0zM1113.75 255 a1.25 1.25 0 1 0 2.5 0 a1.25 1.25 0 1 0 -2.5 0z" fill="black"></path><path d="M343.75 105 a1.25 1.25 0 1 0 2.5 0 a1.25 1.25 0 1 0 -2.5 0zM353.75 75 a1.25 1.25 0 1 0 2.5 0 a1.25 1.25 0 1 0 -2.5 0z" fill="black"></path><path d="M1083.75 85 a1.25 1.25 0 1 0 2.5 0 a1.25 1.25 0 1 0 -2.5 0z" fill="black"></path><path d="M333.75 125 a1.25 1.25 0 1 0 2.5 0 a1.25 1.25 0 1 0 -2.5 0zM343.75 125 a1.25 1.25 0 1 0 2.5 0 a1.25 1.25 0 1 0 -2.5 0zM343.75 65 a1.25 1.25 0 1 0 2.5 0 a1.25 1.25 0 1 0 -2.5 0z" fill="black"></path><path d="M1113.75 185 a1.25 1.25 0 1 0 2.5 0 a1.25 1.25 0 1 0 -2.5 0zM1123.75 205 a1.25 1.25 0 1 0 2.5 0 a1.25 1.25 0 1 0 -2.5 0zM1133.75 185 a1.25 1.25 0 1 0 2.5 0 a1.25 1.25 0 1 0 -2.5 0zM1093.75 35 a1.25 1.25 0 1 0 2.5 0 a1.25 1.25 0 1 0 -2.5 0zM1113.75 135 a1.25 1.25 0 1 0 2.5 0 a1.25 1.25 0 1 0 -2.5 0zM1103.75 75 a1.25 1.25 0 1 0 2.5 0 a1.25 1.25 0 1 0 -2.5 0z" fill="black"></path><path d="M333.75 295 a1.25 1.25 0 1 0 2.5 0 a1.25 1.25 0 1 0 -2.5 0zM343.75 315 a1.25 1.25 0 1 0 2.5 0 a1.25 1.25 0 1 0 -2.5 0zM323.75 305 a1.25 1.25 0 1 0 2.5 0 a1.25 1.25 0 1 0 -2.5 0zM313.75 125 a1.25 1.25 0 1 0 2.5 0 a1.25 1.25 0 1 0 -2.5 0zM343.75 295 a1.25 1.25 0 1 0 2.5 0 a1.25 1.25 0 1 0 -2.5 0zM343.75 215 a1.25 1.25 0 1 0 2.5 0 a1.25 1.25 0 1 0 -2.5 0zM303.75 105 a1.25 1.25 0 1 0 2.5 0 a1.25 1.25 0 1 0 -2.5 0zM313.75 145 a1.25 1.25 0 1 0 2.5 0 a1.25 1.25 0 1 0 -2.5 0z" fill="black"></path></mask></defs></svg>